<?xml version="1.0" encoding="UTF-8" standalone="no"?>
<svg
   version="1.1"
   viewBox="0 0 278.95538 352.04749"
   fill="none"
   stroke="none"
   stroke-linecap="square"
   stroke-miterlimit="10"
   id="svg1264"
   sodipodi:docname="fig_overview.svg"
   width="278.95538"
   height="352.04749"
   inkscape:version="1.1.2 (0a00cf5339, 2022-02-04)"
   xmlns:inkscape="http://www.inkscape.org/namespaces/inkscape"
   xmlns:sodipodi="http://sodipodi.sourceforge.net/DTD/sodipodi-0.dtd"
   xmlns="http://www.w3.org/2000/svg"
   xmlns:svg="http://www.w3.org/2000/svg">
  <defs
     id="defs1268" />
  <sodipodi:namedview
     id="namedview1266"
     pagecolor="#ffffff"
     bordercolor="#666666"
     borderopacity="1.0"
     inkscape:pageshadow="2"
     inkscape:pageopacity="0.0"
     inkscape:pagecheckerboard="0"
     showgrid="false"
     fit-margin-top="0"
     fit-margin-left="0"
     fit-margin-right="0"
     fit-margin-bottom="0"
     inkscape:zoom="1.484375"
     inkscape:cx="163.03158"
     inkscape:cy="176.16842"
     inkscape:window-width="3367"
     inkscape:window-height="1413"
     inkscape:window-x="73"
     inkscape:window-y="27"
     inkscape:window-maximized="1"
     inkscape:current-layer="svg1264" />
  <clipPath
     id="p.0">
    <path
       d="M 0,0 H 960 V 540 H 0 Z"
       clip-rule="nonzero"
       id="path1183" />
  </clipPath>
  <path
     fill="#ffffff"
     d="m 163.31497,87.020385 v 0 c 0,5.18373 -17.80273,9.59871 -41.99213,10.41379 v -5.42064 l -7.83465,7.96582 7.83465,7.703475 v -5.42064 0 c 24.1894,-0.81508 41.99213,-5.230045 41.99213,-10.413785 z"
     fill-rule="evenodd"
     id="path1188" />
  <path
     fill="#cbcbcb"
     d="m 113.48819,81.303445 v 0 c 23.12436,0 43.20981,3.36705 48.50357,8.13095 v 0 c 3.48447,-3.1357 0.005,-6.43648 -9.44553,-8.96155 -9.45092,-2.52507 -23.83706,-3.99742 -39.05804,-3.99742 z"
     fill-rule="evenodd"
     id="path1190" />
  <path
     fill="#000000"
     fill-opacity="0"
     d="m 163.31497,87.020385 v 0 c 0,5.18373 -17.80273,9.59871 -41.99213,10.41379 v -5.42064 l -7.83465,7.96582 7.83465,7.703475 v -5.42064 0 c 24.1894,-0.81508 41.99213,-5.230045 41.99213,-10.413785 v -4.82802 0 c 0,-5.82382 -22.3082,-10.54497 -49.82678,-10.54497 v 4.82802 0 c 23.12436,0 43.20981,3.36705 48.50357,8.13095"
     fill-rule="evenodd"
     id="path1192" />
  <path
     stroke="#595959"
     stroke-width="1"
     stroke-linejoin="round"
     stroke-linecap="butt"
     d="m 163.31497,87.020385 v 0 c 0,5.18373 -17.80273,9.59871 -41.99213,10.41379 v -5.42064 l -7.83465,7.96582 7.83465,7.703475 v -5.42064 0 c 24.1894,-0.81508 41.99213,-5.230045 41.99213,-10.413785 v -4.82802 0 c 0,-5.82382 -22.3082,-10.54497 -49.82678,-10.54497 v 4.82802 0 c 23.12436,0 43.20981,3.36705 48.50357,8.13095"
     fill-rule="evenodd"
     id="path1194" />
  <path
     fill="#f3f3f3"
     fill-opacity="0.6604"
     d="m 4.02099,88.556825 v 0 c 0,-19.49086 22.16721,-35.29134 49.51181,-35.29134 v 0 c 27.34463,0 49.51181,15.80048 49.51181,35.29134 v 0 c 0,19.490875 -22.16718,35.291335 -49.51181,35.291335 v 0 c -27.3446,0 -49.51181,-15.80047 -49.51181,-35.291335 z"
     fill-rule="evenodd"
     id="path1196" />
  <path
     stroke="#595959"
     stroke-width="1"
     stroke-linejoin="round"
     stroke-linecap="butt"
     d="m 4.02099,88.556825 v 0 c 0,-19.49086 22.16721,-35.29134 49.51181,-35.29134 v 0 c 27.34463,0 49.51181,15.80048 49.51181,35.29134 v 0 c 0,19.490875 -22.16718,35.291335 -49.51181,35.291335 v 0 c -27.3446,0 -49.51181,-15.80047 -49.51181,-35.291335 z"
     fill-rule="evenodd"
     id="path1198" />
  <path
     fill="#000000"
     fill-opacity="0"
     d="M 15.9895,69.974155 H 91.07611 V 107.1395 H 15.9895 Z"
     fill-rule="evenodd"
     id="path1200" />
  <path
     fill="#000000"
     d="m 39.22182,93.054155 v -10.40625 h 4.60937 q 0.71875,0 1.32813,0.29687 0.60937,0.29688 1.04687,0.79688 0.45313,0.48437 0.6875,1.10937 0.25,0.60938 0.25,1.25 0,0.67188 -0.23437,1.28125 -0.21875,0.59375 -0.65625,1.0625 -0.42188,0.45313 -0.98438,0.70313 l 2.375,3.90625 h -2.23437 l -2.14063,-3.48438 h -2.01562 v 3.48438 z m 2.03125,-5.26563 h 2.53125 q 0.39062,0 0.67187,-0.21875 0.29688,-0.23437 0.46875,-0.60937 0.1875,-0.39063 0.1875,-0.85938 0,-0.5 -0.21875,-0.85937 -0.20312,-0.375 -0.51562,-0.59375 -0.3125,-0.21875 -0.67188,-0.21875 h -2.45312 z m 9.74643,-1.42187 v 6.6875 h -2.03125 v -10.40625 h 1.625 l 5.375,6.85937 v -6.84375 h 2.01562 v 10.39063 h -1.6875 z m 11.97961,-3.71875 h 2.0625 l 3.82813,10.40625 h -2.09375 l -0.96875,-2.59375 h -3.625 l -0.95313,2.59375 h -2.07812 z m 2.46875,6.39062 -1.4375,-4.29687 -1.5,4.29687 z"
     fill-rule="nonzero"
     id="path1202" />
  <path
     fill="#f3f3f3"
     fill-opacity="0.6604"
     d="m 169.72705,88.556825 v 0 c 0,-19.49086 22.16717,-35.29134 49.51178,-35.29134 v 0 c 27.34467,0 49.51184,15.80048 49.51184,35.29134 v 0 c 0,19.490875 -22.16718,35.291335 -49.51184,35.291335 v 0 c -27.3446,0 -49.51178,-15.80047 -49.51178,-35.291335 z"
     fill-rule="evenodd"
     id="path1204" />
  <path
     stroke="#595959"
     stroke-width="1"
     stroke-linejoin="round"
     stroke-linecap="butt"
     d="m 169.72705,88.556825 v 0 c 0,-19.49086 22.16717,-35.29134 49.51178,-35.29134 v 0 c 27.34467,0 49.51184,15.80048 49.51184,35.29134 v 0 c 0,19.490875 -22.16718,35.291335 -49.51184,35.291335 v 0 c -27.3446,0 -49.51178,-15.80047 -49.51178,-35.291335 z"
     fill-rule="evenodd"
     id="path1206" />
  <path
     fill="#ffffff"
     d="m 56.147,127.16839 v 28.94486 h 2.61417 l -5.22837,5.22836 -5.22833,-5.22836 h 2.61417 v -28.94486 z"
     fill-rule="evenodd"
     id="path1208" />
  <path
     stroke="#595959"
     stroke-width="1"
     stroke-linejoin="round"
     stroke-linecap="butt"
     d="m 56.147,127.16839 v 28.94486 h 2.61417 l -5.22837,5.22836 -5.22833,-5.22836 h 2.61417 v -28.94486 z"
     fill-rule="evenodd"
     id="path1210" />
  <path
     fill="#ffffff"
     d="m 163.31497,201.48508 v 0 c 0,5.18375 -17.80273,9.59869 -41.99213,10.41379 v -5.42062 l -7.83465,7.96582 7.83465,7.70347 v -5.42063 0 c 24.1894,-0.81509 41.99213,-5.23007 41.99213,-10.41382 z"
     fill-rule="evenodd"
     id="path1212" />
  <path
     fill="#cbcbcb"
     d="m 113.48819,195.76814 v 0 c 23.12436,0 43.20981,3.36708 48.50357,8.13096 v 0 c 3.48447,-3.13571 0.005,-6.43649 -9.44553,-8.96155 -9.45092,-2.52505 -23.83706,-3.9974 -39.05804,-3.9974 z"
     fill-rule="evenodd"
     id="path1214" />
  <path
     fill="#000000"
     fill-opacity="0"
     d="m 163.31497,201.48508 v 0 c 0,5.18375 -17.80273,9.59869 -41.99213,10.41379 v -5.42062 l -7.83465,7.96582 7.83465,7.70347 v -5.42063 0 c 24.1894,-0.81509 41.99213,-5.23007 41.99213,-10.41382 v -4.828 0 c 0,-5.82382 -22.3082,-10.54495 -49.82678,-10.54495 v 4.828 0 c 23.12436,0 43.20981,3.36707 48.50357,8.13095"
     fill-rule="evenodd"
     id="path1216" />
  <path
     stroke="#595959"
     stroke-width="1"
     stroke-linejoin="round"
     stroke-linecap="butt"
     d="m 163.31497,201.48508 v 0 c 0,5.18375 -17.80273,9.59869 -41.99213,10.41379 v -5.42062 l -7.83465,7.96582 7.83465,7.70347 v -5.42063 0 c 24.1894,-0.81509 41.99213,-5.23007 41.99213,-10.41382 v -4.828 0 c 0,-5.82382 -22.3082,-10.54495 -49.82678,-10.54495 v 4.828 0 c 23.12436,0 43.20981,3.36707 48.50357,8.13095"
     fill-rule="evenodd"
     id="path1218" />
  <path
     fill="#f3f3f3"
     fill-opacity="0.6604"
     d="m 4.02099,203.02152 v 0 c 0,-19.49088 22.16721,-35.29133 49.51181,-35.29133 v 0 c 27.34463,0 49.51181,15.80046 49.51181,35.29132 v 0 c 0,19.49087 -22.16718,35.29135 -49.51181,35.29135 v 0 c -27.3446,0 -49.51181,-15.80048 -49.51181,-35.29134 z"
     fill-rule="evenodd"
     id="path1220" />
  <path
     stroke="#595959"
     stroke-width="1"
     stroke-linejoin="round"
     stroke-linecap="butt"
     d="m 4.02099,203.02152 v 0 c 0,-19.49088 22.16721,-35.29133 49.51181,-35.29133 v 0 c 27.34463,0 49.51181,15.80046 49.51181,35.29132 v 0 c 0,19.49087 -22.16718,35.29135 -49.51181,35.29135 v 0 c -27.3446,0 -49.51181,-15.80048 -49.51181,-35.29134 z"
     fill-rule="evenodd"
     id="path1222" />
  <path
     fill="#000000"
     fill-opacity="0"
     d="m 0,176.43872 h 107.08661 v 54.92914 H 0 Z"
     fill-rule="evenodd"
     id="path1224" />
  <path
     fill="#000000"
     d="m 39.23232,199.51872 v -10.40625 h 4.60937 q 0.71875,0 1.32813,0.29687 0.60937,0.29688 1.04687,0.79688 0.45313,0.48437 0.6875,1.10937 0.25,0.60938 0.25,1.25 0,0.67188 -0.23437,1.28125 -0.21875,0.59375 -0.65625,1.0625 -0.42188,0.45313 -0.98438,0.70313 l 2.375,3.90625 h -2.23437 l -2.14063,-3.48438 h -2.01562 v 3.48438 z m 2.03125,-5.26563 h 2.53125 q 0.39062,0 0.67187,-0.21875 0.29688,-0.23437 0.46875,-0.60937 0.1875,-0.39063 0.1875,-0.85938 0,-0.5 -0.21875,-0.85937 -0.20312,-0.375 -0.51562,-0.59375 -0.3125,-0.21875 -0.67188,-0.21875 H 41.26357 Z M 51.01,192.83122 v 6.6875 h -2.03125 v -10.40625 h 1.625 l 5.375,6.85937 v -6.84375 h 2.01562 v 10.39063 h -1.6875 z m 11.97964,-3.71875 h 2.0625 l 3.82813,10.40625 h -2.09375 l -0.96875,-2.59375 h -3.625 l -0.95313,2.59375 h -2.07812 z m 2.46875,6.39062 -1.4375,-4.29687 -1.5,4.29687 z"
     fill-rule="nonzero"
     id="path1226" />
  <path
     fill="#000000"
     d="m 27.4414,217.11871 v -10.40625 h 3.78125 q 1.70313,0 2.84375,0.70313 1.15625,0.6875 1.71875,1.875 0.57813,1.17187 0.57813,2.60937 0,1.57813 -0.64063,2.75 -0.625,1.17188 -1.78125,1.82813 -1.14062,0.64062 -2.71875,0.64062 z m 6.875,-5.21875 q 0,-1.01562 -0.375,-1.78125 -0.35937,-0.76562 -1.04687,-1.1875 -0.6875,-0.4375 -1.67188,-0.4375 h -1.75 v 6.85938 h 1.75 q 1,0 1.6875,-0.45313 0.6875,-0.45312 1.04688,-1.23437 0.35937,-0.78125 0.35937,-1.76563 z m 2.81216,2.95313 q 0,-0.75 0.42188,-1.3125 0.42187,-0.5625 1.17187,-0.875 0.75,-0.3125 1.71875,-0.3125 0.46875,0 0.96875,0.0781 0.5,0.0781 0.875,0.23437 v -0.40625 q 0,-0.73437 -0.4375,-1.125 -0.4375,-0.40625 -1.28125,-0.40625 -0.625,0 -1.20312,0.21875 -0.57813,0.21875 -1.20313,0.64063 l -0.625,-1.28125 q 0.76563,-0.5 1.5625,-0.75 0.79688,-0.25 1.67188,-0.25 1.64062,0 2.54687,0.82812 0.92188,0.8125 0.92188,2.34375 v 2.4375 q 0,0.3125 0.10937,0.45313 0.10938,0.125 0.35938,0.15625 v 1.59375 q -0.25,0.0469 -0.46875,0.0781 -0.21875,0.0312 -0.35938,0.0312 -0.59375,0 -0.89062,-0.26562 -0.29688,-0.26563 -0.375,-0.65625 l -0.0469,-0.39063 q -0.48437,0.64063 -1.23437,1 -0.75,0.34375 -1.53125,0.34375 -0.76563,0 -1.375,-0.3125 -0.59375,-0.3125 -0.95313,-0.85937 -0.34375,-0.54688 -0.34375,-1.23438 z m 4.78125,0.39062 q 0.17188,-0.17187 0.26563,-0.34375 0.10937,-0.1875 0.10937,-0.32812 v -0.78125 q -0.35937,-0.14063 -0.76562,-0.21875 -0.40625,-0.0937 -0.78125,-0.0937 -0.76563,0 -1.25,0.34375 -0.48438,0.32813 -0.48438,0.85938 0,0.29687 0.15625,0.5625 0.15625,0.26562 0.46875,0.42187 0.3125,0.15625 0.73438,0.15625 0.4375,0 0.85937,-0.15625 0.42188,-0.17187 0.6875,-0.42187 z m 8.69877,1.48438 q -0.25,0.0937 -0.60938,0.23437 -0.34375,0.125 -0.75,0.20313 -0.40625,0.0781 -0.8125,0.0781 -0.54687,0 -1,-0.1875 -0.45312,-0.1875 -0.73437,-0.59375 -0.26563,-0.42188 -0.26563,-1.10938 v -4.40625 h -1 v -1.51562 h 1 v -2.48438 h 1.96875 v 2.48438 h 1.60938 v 1.51562 h -1.60938 v 3.75 q 0.0156,0.40625 0.21875,0.57813 0.20313,0.17187 0.51563,0.17187 0.3125,0 0.59375,-0.0937 0.29687,-0.10937 0.46875,-0.1875 z m 0.48739,-1.875 q 0,-0.75 0.42188,-1.3125 0.42187,-0.5625 1.17187,-0.875 0.75,-0.3125 1.71875,-0.3125 0.46875,0 0.96875,0.0781 0.5,0.0781 0.875,0.23437 v -0.40625 q 0,-0.73437 -0.4375,-1.125 -0.4375,-0.40625 -1.28125,-0.40625 -0.625,0 -1.20312,0.21875 -0.57813,0.21875 -1.20313,0.64063 l -0.625,-1.28125 q 0.76563,-0.5 1.5625,-0.75 0.79688,-0.25 1.67188,-0.25 1.64062,0 2.54687,0.82812 0.92188,0.8125 0.92188,2.34375 v 2.4375 q 0,0.3125 0.10937,0.45313 0.10938,0.125 0.35938,0.15625 v 1.59375 q -0.25,0.0469 -0.46875,0.0781 -0.21875,0.0312 -0.35938,0.0312 -0.59375,0 -0.89062,-0.26562 -0.29688,-0.26563 -0.375,-0.65625 l -0.0469,-0.39063 q -0.48437,0.64063 -1.23437,1 -0.75,0.34375 -1.53125,0.34375 -0.76563,0 -1.375,-0.3125 -0.59375,-0.3125 -0.95313,-0.85937 -0.34375,-0.54688 -0.34375,-1.23438 z m 4.78125,0.39062 q 0.17188,-0.17187 0.26563,-0.34375 0.10937,-0.1875 0.10937,-0.32812 v -0.78125 q -0.35937,-0.14063 -0.76562,-0.21875 -0.40625,-0.0937 -0.78125,-0.0937 -0.76563,0 -1.25,0.34375 -0.48438,0.32813 -0.48438,0.85938 0,0.29687 0.15625,0.5625 0.15625,0.26562 0.46875,0.42187 0.3125,0.15625 0.73438,0.15625 0.4375,0 0.85937,-0.15625 0.42188,-0.17187 0.6875,-0.42187 z m 6.99085,2.01563 q -0.98438,0 -1.875,-0.3125 -0.89063,-0.32813 -1.53125,-0.95313 l 0.70312,-1.28125 q 0.6875,0.5625 1.34375,0.82813 0.67188,0.26562 1.29688,0.26562 0.5625,0 0.90625,-0.20312 0.34375,-0.21875 0.34375,-0.625 0,-0.28125 -0.1875,-0.42188 -0.1875,-0.15625 -0.54688,-0.26562 -0.35937,-0.125 -0.875,-0.28125 -0.84375,-0.28125 -1.42187,-0.53125 -0.57813,-0.26563 -0.85938,-0.67188 -0.28125,-0.40625 -0.28125,-1.03125 0,-0.76562 0.39063,-1.3125 0.39062,-0.54687 1.07812,-0.85937 0.70313,-0.3125 1.64063,-0.3125 0.8125,0 1.54687,0.26562 0.73438,0.25 1.34375,0.82813 l -0.79687,1.23437 q -0.59375,-0.45312 -1.125,-0.65625 -0.51563,-0.21875 -1.0625,-0.21875 -0.3125,0 -0.57813,0.0781 -0.26562,0.0625 -0.4375,0.23437 -0.17187,0.17188 -0.17187,0.48438 0,0.26562 0.15625,0.42187 0.15625,0.15625 0.46875,0.28125 0.3125,0.10938 0.76562,0.26563 0.92188,0.25 1.5625,0.53125 0.64063,0.28125 0.95313,0.6875 0.32812,0.40625 0.32812,1.10937 0,1.14063 -0.84375,1.78125 -0.82812,0.64063 -2.23437,0.64063 z m 7.97458,0 q -0.92188,0 -1.67188,-0.3125 -0.75,-0.3125 -1.28125,-0.85938 -0.51562,-0.54687 -0.8125,-1.25 -0.28125,-0.71875 -0.28125,-1.51562 0,-1.09375 0.48438,-2 0.5,-0.92188 1.40625,-1.46875 0.92187,-0.54688 2.17187,-0.54688 1.26563,0 2.15625,0.54688 0.89063,0.54687 1.35938,1.45312 0.48437,0.90625 0.48437,1.9375 0,0.1875 -0.0156,0.375 -0.0156,0.17188 -0.0312,0.29688 h -5.9375 q 0.0625,0.57812 0.34375,1.01562 0.29687,0.4375 0.73437,0.67188 0.45313,0.21875 0.96875,0.21875 0.57813,0 1.09375,-0.28125 0.53125,-0.28125 0.71875,-0.75 l 1.6875,0.46875 q -0.28125,0.57812 -0.79687,1.04687 -0.51563,0.45313 -1.21875,0.70313 -0.70313,0.25 -1.5625,0.25 z m -2,-4.59375 h 4.01562 q -0.0625,-0.59375 -0.34375,-1.01563 -0.26562,-0.4375 -0.70312,-0.67187 -0.4375,-0.25 -0.98438,-0.25 -0.53125,0 -0.96875,0.25 -0.42187,0.23437 -0.70312,0.67187 -0.26563,0.42188 -0.3125,1.01563 z m 11.75268,4.0625 q -0.25,0.0937 -0.60937,0.23437 -0.34375,0.125 -0.75,0.20313 -0.40625,0.0781 -0.8125,0.0781 -0.54688,0 -1,-0.1875 -0.45313,-0.1875 -0.73438,-0.59375 -0.26562,-0.42188 -0.26562,-1.10938 v -4.40625 h -1 v -1.51562 h 1 v -2.48438 h 1.96875 v 2.48438 h 1.60937 v 1.51562 h -1.60937 v 3.75 q 0.0156,0.40625 0.21875,0.57813 0.20312,0.17187 0.51562,0.17187 0.3125,0 0.59375,-0.0937 0.29688,-0.10937 0.46875,-0.1875 z"
     fill-rule="nonzero"
     id="path1228" />
  <path
     fill="#f3f3f3"
     fill-opacity="0.6604"
     d="m 169.72705,203.02152 v 0 c 0,-19.49088 22.16717,-35.29133 49.51178,-35.29133 v 0 c 27.34467,0 49.51184,15.80046 49.51184,35.29132 v 0 c 0,19.49087 -22.16718,35.29135 -49.51184,35.29135 v 0 c -27.3446,0 -49.51178,-15.80048 -49.51178,-35.29134 z"
     fill-rule="evenodd"
     id="path1230" />
  <path
     stroke="#595959"
     stroke-width="1"
     stroke-linejoin="round"
     stroke-linecap="butt"
     d="m 169.72705,203.02152 v 0 c 0,-19.49088 22.16717,-35.29133 49.51178,-35.29133 v 0 c 27.34467,0 49.51184,15.80046 49.51184,35.29132 v 0 c 0,19.49087 -22.16718,35.29135 -49.51184,35.29135 v 0 c -27.3446,0 -49.51178,-15.80048 -49.51178,-35.29134 z"
     fill-rule="evenodd"
     id="path1232" />
  <path
     fill="#000000"
     fill-opacity="0"
     d="m 159.52232,175.55682 h 119.43307 v 54.92914 H 159.52232 Z"
     fill-rule="evenodd"
     id="path1234" />
  <path
     fill="#000000"
     d="m 193.13692,198.63682 v -10.40625 h 3.78128 q 1.70313,0 2.84375,0.70312 1.15625,0.6875 1.71875,1.875 0.57813,1.17188 0.57813,2.60938 0,1.57812 -0.64063,2.75 -0.625,1.17187 -1.78125,1.82812 -1.14062,0.64063 -2.71875,0.64063 z m 6.87503,-5.21875 q 0,-1.01563 -0.375,-1.78125 -0.35937,-0.76563 -1.04687,-1.1875 -0.6875,-0.4375 -1.67188,-0.4375 h -1.75 v 6.85937 h 1.75 q 1,0 1.6875,-0.45312 0.6875,-0.45313 1.04688,-1.23438 0.35937,-0.78125 0.35937,-1.76562 z m 2.81213,2.95312 q 0,-0.75 0.42188,-1.3125 0.42187,-0.5625 1.17187,-0.875 0.75,-0.3125 1.71875,-0.3125 0.46875,0 0.96875,0.0781 0.5,0.0781 0.875,0.23437 v -0.40625 q 0,-0.73437 -0.4375,-1.125 -0.4375,-0.40625 -1.28125,-0.40625 -0.625,0 -1.20312,0.21875 -0.57813,0.21875 -1.20313,0.64063 l -0.625,-1.28125 q 0.76563,-0.5 1.5625,-0.75 0.79688,-0.25 1.67188,-0.25 1.64062,0 2.54687,0.82812 0.92188,0.8125 0.92188,2.34375 v 2.4375 q 0,0.3125 0.10937,0.45313 0.10938,0.125 0.35938,0.15625 v 1.59375 q -0.25,0.0469 -0.46875,0.0781 -0.21875,0.0312 -0.35938,0.0312 -0.59375,0 -0.89062,-0.26562 -0.29688,-0.26563 -0.375,-0.65625 l -0.0469,-0.39063 q -0.48437,0.64063 -1.23437,1 -0.75,0.34375 -1.53125,0.34375 -0.76563,0 -1.375,-0.3125 -0.59375,-0.3125 -0.95313,-0.85937 -0.34375,-0.54688 -0.34375,-1.23438 z m 4.78125,0.39063 q 0.17188,-0.17188 0.26563,-0.34375 0.10937,-0.1875 0.10937,-0.32813 v -0.78125 q -0.35937,-0.14062 -0.76562,-0.21875 -0.40625,-0.0937 -0.78125,-0.0937 -0.76563,0 -1.25,0.34375 -0.48438,0.32812 -0.48438,0.85937 0,0.29688 0.15625,0.5625 0.15625,0.26563 0.46875,0.42188 0.3125,0.15625 0.73438,0.15625 0.4375,0 0.85937,-0.15625 0.42188,-0.17188 0.6875,-0.42188 z m 8.6988,1.48437 q -0.25,0.0937 -0.60938,0.23438 -0.34375,0.125 -0.75,0.20312 -0.40625,0.0781 -0.8125,0.0781 -0.54687,0 -1,-0.1875 -0.45312,-0.1875 -0.73437,-0.59375 -0.26563,-0.42188 -0.26563,-1.10938 v -4.40625 h -1 v -1.51562 h 1 v -2.48438 h 1.96875 v 2.48438 h 1.60938 v 1.51562 H 214.101 v 3.75 q 0.0156,0.40625 0.21875,0.57813 0.20313,0.17187 0.51563,0.17187 0.3125,0 0.59375,-0.0937 0.29687,-0.10937 0.46875,-0.1875 z m 0.48736,-1.875 q 0,-0.75 0.42188,-1.3125 0.42187,-0.5625 1.17187,-0.875 0.75,-0.3125 1.71875,-0.3125 0.46875,0 0.96875,0.0781 0.5,0.0781 0.875,0.23437 v -0.40625 q 0,-0.73437 -0.4375,-1.125 -0.4375,-0.40625 -1.28125,-0.40625 -0.625,0 -1.20312,0.21875 -0.57813,0.21875 -1.20313,0.64063 l -0.625,-1.28125 q 0.76563,-0.5 1.5625,-0.75 0.79688,-0.25 1.67188,-0.25 1.64062,0 2.54687,0.82812 0.92188,0.8125 0.92188,2.34375 v 2.4375 q 0,0.3125 0.10937,0.45313 0.10938,0.125 0.35938,0.15625 v 1.59375 q -0.25,0.0469 -0.46875,0.0781 -0.21875,0.0312 -0.35938,0.0312 -0.59375,0 -0.89062,-0.26562 -0.29688,-0.26563 -0.375,-0.65625 l -0.0469,-0.39063 q -0.48437,0.64063 -1.23437,1 -0.75,0.34375 -1.53125,0.34375 -0.76563,0 -1.375,-0.3125 -0.59375,-0.3125 -0.95313,-0.85937 -0.34375,-0.54688 -0.34375,-1.23438 z m 4.78125,0.39063 q 0.17188,-0.17188 0.26563,-0.34375 0.10937,-0.1875 0.10937,-0.32813 v -0.78125 q -0.35937,-0.14062 -0.76562,-0.21875 -0.40625,-0.0937 -0.78125,-0.0937 -0.76563,0 -1.25,0.34375 -0.48438,0.32812 -0.48438,0.85937 0,0.29688 0.15625,0.5625 0.15625,0.26563 0.46875,0.42188 0.3125,0.15625 0.73438,0.15625 0.4375,0 0.85937,-0.15625 0.42188,-0.17188 0.6875,-0.42188 z m 6.99085,2.01562 q -0.98438,0 -1.875,-0.3125 -0.89063,-0.32812 -1.53125,-0.95312 l 0.70312,-1.28125 q 0.6875,0.5625 1.34375,0.82812 0.67188,0.26563 1.29688,0.26563 0.5625,0 0.90625,-0.20313 0.34375,-0.21875 0.34375,-0.625 0,-0.28125 -0.1875,-0.42187 -0.1875,-0.15625 -0.54688,-0.26563 -0.35937,-0.125 -0.875,-0.28125 -0.84375,-0.28125 -1.42187,-0.53125 -0.57813,-0.26562 -0.85938,-0.67187 -0.28125,-0.40625 -0.28125,-1.03125 0,-0.76563 0.39063,-1.3125 0.39062,-0.54688 1.07812,-0.85938 0.70313,-0.3125 1.64063,-0.3125 0.8125,0 1.54687,0.26563 0.73438,0.25 1.34375,0.82812 l -0.79687,1.23438 q -0.59375,-0.45313 -1.125,-0.65625 -0.51563,-0.21875 -1.0625,-0.21875 -0.3125,0 -0.57813,0.0781 -0.26562,0.0625 -0.4375,0.23437 -0.17187,0.17188 -0.17187,0.48438 0,0.26562 0.15625,0.42187 0.15625,0.15625 0.46875,0.28125 0.3125,0.10938 0.76562,0.26563 0.92188,0.25 1.5625,0.53125 0.64063,0.28125 0.95313,0.6875 0.32812,0.40625 0.32812,1.10937 0,1.14063 -0.84375,1.78125 -0.82812,0.64063 -2.23437,0.64063 z m 7.97461,0 q -0.92188,0 -1.67188,-0.3125 -0.75,-0.3125 -1.28125,-0.85937 -0.51562,-0.54688 -0.8125,-1.25 -0.28125,-0.71875 -0.28125,-1.51563 0,-1.09375 0.48438,-2 0.5,-0.92187 1.40625,-1.46875 0.92187,-0.54687 2.17187,-0.54687 1.26563,0 2.15625,0.54687 0.89063,0.54688 1.35938,1.45313 0.48437,0.90625 0.48437,1.9375 0,0.1875 -0.0156,0.375 -0.0156,0.17187 -0.0312,0.29687 h -5.9375 q 0.0625,0.57813 0.34375,1.01563 0.29687,0.4375 0.73437,0.67187 0.45313,0.21875 0.96875,0.21875 0.57813,0 1.09375,-0.28125 0.53125,-0.28125 0.71875,-0.75 l 1.6875,0.46875 q -0.28125,0.57813 -0.79687,1.04688 -0.51563,0.45312 -1.21875,0.70312 -0.70313,0.25 -1.5625,0.25 z m -2,-4.59375 h 4.01562 q -0.0625,-0.59375 -0.34375,-1.01562 -0.26562,-0.4375 -0.70312,-0.67188 -0.4375,-0.25 -0.98438,-0.25 -0.53125,0 -0.96875,0.25 -0.42187,0.23438 -0.70312,0.67188 -0.26563,0.42187 -0.3125,1.01562 z m 11.75268,4.0625 q -0.25,0.0937 -0.60937,0.23438 -0.34375,0.125 -0.75,0.20312 -0.40625,0.0781 -0.8125,0.0781 -0.54688,0 -1,-0.1875 -0.45313,-0.1875 -0.73438,-0.59375 -0.26562,-0.42188 -0.26562,-1.10938 v -4.40625 h -1 v -1.51562 h 1 v -2.48438 h 1.96875 v 2.48438 h 1.60937 v 1.51562 h -1.60937 v 3.75 q 0.0156,0.40625 0.21875,0.57813 0.20312,0.17187 0.51562,0.17187 0.3125,0 0.59375,-0.0937 0.29688,-0.10937 0.46875,-0.1875 z"
     fill-rule="nonzero"
     id="path1236" />
  <path
     fill="#000000"
     d="m 192.12466,207.61181 h -3.3125 v 8.625 h -2.01563 v -8.625 h -3.32812 v -1.78125 h 8.65625 z m 4.94827,2.64063 q -0.89062,0 -1.59375,0.34375 -0.70312,0.34375 -1.01562,1 v 4.64062 h -1.96875 v -7.6875 h 1.8125 v 1.65625 q 0.40625,-0.79687 1.03125,-1.25 0.64062,-0.45312 1.34375,-0.5 0.15625,0 0.23437,0 0.0937,0 0.15625,0.0156 z m 0.51862,3.71875 q 0,-0.75 0.42187,-1.3125 0.42188,-0.5625 1.17188,-0.875 0.75,-0.3125 1.71875,-0.3125 0.46875,0 0.96875,0.0781 0.5,0.0781 0.875,0.23437 v -0.40625 q 0,-0.73437 -0.4375,-1.125 -0.4375,-0.40625 -1.28125,-0.40625 -0.625,0 -1.20313,0.21875 -0.57812,0.21875 -1.20312,0.64063 l -0.625,-1.28125 q 0.76562,-0.5 1.5625,-0.75 0.79687,-0.25 1.67187,-0.25 1.64063,0 2.54688,0.82812 0.92187,0.8125 0.92187,2.34375 v 2.4375 q 0,0.3125 0.10938,0.45313 0.10937,0.125 0.35937,0.15625 v 1.59375 q -0.25,0.0469 -0.46875,0.0781 -0.21875,0.0312 -0.35937,0.0312 -0.59375,0 -0.89063,-0.26562 -0.29687,-0.26563 -0.375,-0.65625 l -0.0469,-0.39063 q -0.48438,0.64063 -1.23438,1 -0.75,0.34375 -1.53125,0.34375 -0.76562,0 -1.375,-0.3125 -0.59375,-0.3125 -0.95312,-0.85937 -0.34375,-0.54688 -0.34375,-1.23438 z m 4.78125,0.39062 q 0.17187,-0.17187 0.26562,-0.34375 0.10938,-0.1875 0.10938,-0.32812 v -0.78125 q -0.35938,-0.14063 -0.76563,-0.21875 -0.40625,-0.0937 -0.78125,-0.0937 -0.76562,0 -1.25,0.34375 -0.48437,0.32813 -0.48437,0.85938 0,0.29687 0.15625,0.5625 0.15625,0.26562 0.46875,0.42187 0.3125,0.15625 0.73437,0.15625 0.4375,0 0.85938,-0.15625 0.42187,-0.17187 0.6875,-0.42187 z m 11.30334,1.875 h -1.96875 v -4.3125 q 0,-0.92187 -0.32812,-1.34375 -0.3125,-0.42187 -0.89063,-0.42187 -0.39062,0 -0.79687,0.20312 -0.39063,0.20313 -0.71875,0.5625 -0.32813,0.35938 -0.46875,0.82813 v 4.48437 h -1.96875 v -7.6875 h 1.78125 v 1.42188 q 0.28125,-0.48438 0.73437,-0.82813 0.46875,-0.35937 1.0625,-0.53125 0.59375,-0.1875 1.25,-0.1875 0.71875,0 1.17188,0.26563 0.46875,0.25 0.70312,0.6875 0.25,0.42187 0.34375,0.96875 0.0937,0.54687 0.0937,1.09375 z m 4.53992,0.14063 q -0.98437,0 -1.875,-0.3125 -0.89062,-0.32813 -1.53125,-0.95313 l 0.70313,-1.28125 q 0.6875,0.5625 1.34375,0.82813 0.67187,0.26562 1.29687,0.26562 0.5625,0 0.90625,-0.20312 0.34375,-0.21875 0.34375,-0.625 0,-0.28125 -0.1875,-0.42188 -0.1875,-0.15625 -0.54687,-0.26562 -0.35938,-0.125 -0.875,-0.28125 -0.84375,-0.28125 -1.42188,-0.53125 -0.57812,-0.26563 -0.85937,-0.67188 -0.28125,-0.40625 -0.28125,-1.03125 0,-0.76562 0.39062,-1.3125 0.39063,-0.54687 1.07813,-0.85937 0.70312,-0.3125 1.64062,-0.3125 0.8125,0 1.54688,0.26562 0.73437,0.25 1.34375,0.82813 l -0.79688,1.23437 q -0.59375,-0.45312 -1.125,-0.65625 -0.51562,-0.21875 -1.0625,-0.21875 -0.3125,0 -0.57812,0.0781 -0.26563,0.0625 -0.4375,0.23437 -0.17188,0.17188 -0.17188,0.48438 0,0.26562 0.15625,0.42187 0.15625,0.15625 0.46875,0.28125 0.3125,0.10938 0.76563,0.26563 0.92187,0.25 1.5625,0.53125 0.64062,0.28125 0.95312,0.6875 0.32813,0.40625 0.32813,1.10937 0,1.14063 -0.84375,1.78125 -0.82813,0.64063 -2.23438,0.64063 z m 4.83685,-0.14063 v -5.78125 h -1 v -1.48437 h 1 v -0.46875 q 0,-0.95313 0.3125,-1.64063 0.32813,-0.70312 0.90625,-1.07812 0.57813,-0.39063 1.34375,-0.39063 0.46875,0 0.9375,0.125 0.48438,0.10938 0.95313,0.32813 l -0.39063,1.48437 q -0.21875,-0.125 -0.51562,-0.20312 -0.29688,-0.0781 -0.54688,-0.0781 -0.5,0 -0.76562,0.35937 -0.26563,0.34375 -0.26563,1.01563 v 0.54687 h 1.875 v 1.48438 h -1.875 v 5.78125 z m 8.39826,0.14063 q -0.9375,0 -1.6875,-0.3125 -0.73438,-0.3125 -1.26563,-0.85938 -0.51562,-0.5625 -0.79687,-1.28125 -0.28125,-0.71875 -0.28125,-1.51562 0,-0.79688 0.28125,-1.51563 0.28125,-0.71875 0.79687,-1.28125 0.53125,-0.5625 1.26563,-0.875 0.75,-0.3125 1.6875,-0.3125 0.9375,0 1.67187,0.3125 0.75,0.3125 1.28125,0.875 0.53125,0.5625 0.79688,1.28125 0.26562,0.71875 0.26562,1.51563 0,0.79687 -0.26562,1.51562 -0.26563,0.71875 -0.79688,1.28125 -0.51562,0.54688 -1.26562,0.85938 -0.75,0.3125 -1.6875,0.3125 z m -2,-3.96875 q 0,0.67187 0.25,1.20312 0.26562,0.51563 0.71875,0.8125 0.46875,0.28125 1.03125,0.28125 0.5625,0 1.01562,-0.29687 0.45313,-0.29688 0.71875,-0.8125 0.28125,-0.53125 0.28125,-1.20313 0,-0.65625 -0.28125,-1.1875 -0.26562,-0.53125 -0.71875,-0.8125 -0.45312,-0.29687 -1.01562,-0.29687 -0.5625,0 -1.03125,0.29687 -0.45313,0.29688 -0.71875,0.82813 -0.25,0.51562 -0.25,1.1875 z m 11.91296,-2.15625 q -0.89062,0 -1.59375,0.34375 -0.70312,0.34375 -1.01562,1 v 4.64062 h -1.96875 v -7.6875 h 1.8125 v 1.65625 q 0.40625,-0.79687 1.03125,-1.25 0.64062,-0.45312 1.34375,-0.5 0.15625,0 0.23437,0 0.0937,0 0.15625,0.0156 z m 13.03137,5.98437 h -1.96875 v -4.3125 q 0,-0.90625 -0.3125,-1.32812 -0.3125,-0.4375 -0.875,-0.4375 -0.5625,0 -1.09375,0.45312 -0.51562,0.4375 -0.73437,1.15625 v 4.46875 h -1.96875 v -4.3125 q 0,-0.92187 -0.3125,-1.34375 -0.3125,-0.42187 -0.875,-0.42187 -0.5625,0 -1.09375,0.4375 -0.51563,0.4375 -0.73438,1.15625 v 4.48437 H 242.458 v -7.6875 h 1.78125 v 1.42188 q 0.4375,-0.73438 1.17188,-1.14063 0.73437,-0.40625 1.6875,-0.40625 0.95312,0 1.48437,0.46875 0.53125,0.46875 0.67188,1.15625 0.46875,-0.78125 1.1875,-1.20312 0.73437,-0.42188 1.64062,-0.42188 0.71875,0 1.17188,0.26563 0.45312,0.25 0.70312,0.6875 0.25,0.42187 0.34375,0.96875 0.0937,0.54687 0.0937,1.09375 z"
     fill-rule="nonzero"
     id="path1238" />
  <path
     fill="#ffffff"
     d="m 56.147,241.63304 v 28.94488 h 2.61417 l -5.22837,5.22837 -5.22833,-5.22837 h 2.61417 v -28.94488 z"
     fill-rule="evenodd"
     id="path1240" />
  <path
     stroke="#595959"
     stroke-width="1"
     stroke-linejoin="round"
     stroke-linecap="butt"
     d="m 56.147,241.63304 v 28.94488 h 2.61417 l -5.22837,5.22837 -5.22833,-5.22837 h 2.61417 v -28.94488 z"
     fill-rule="evenodd"
     id="path1242" />
  <path
     fill="#f3f3f3"
     fill-opacity="0.6604"
     d="m 4.02099,316.25614 v 0 c 0,-19.49085 22.16721,-35.29131 49.51181,-35.29131 v 0 c 27.34463,0 49.51181,15.80047 49.51181,35.29131 v 0 c 0,19.49087 -22.16718,35.29136 -49.51181,35.29136 v 0 c -27.3446,0 -49.51181,-15.80048 -49.51181,-35.29136 z"
     fill-rule="evenodd"
     id="path1244" />
  <path
     stroke="#595959"
     stroke-width="1"
     stroke-linejoin="round"
     stroke-linecap="butt"
     d="m 4.02099,316.25614 v 0 c 0,-19.49085 22.16721,-35.29131 49.51181,-35.29131 v 0 c 27.34463,0 49.51181,15.80047 49.51181,35.29131 v 0 c 0,19.49087 -22.16718,35.29136 -49.51181,35.29136 v 0 c -27.3446,0 -49.51181,-15.80048 -49.51181,-35.29136 z"
     fill-rule="evenodd"
     id="path1246" />
  <path
     fill="#000000"
     fill-opacity="0"
     d="M 15.9895,297.67346 H 91.07611 V 334.8388 H 15.9895 Z"
     fill-rule="evenodd"
     id="path1248" />
  <path
     fill="#000000"
     d="m 46.57116,312.12848 h -3.3125 v 8.625 h -2.01563 v -8.625 h -3.32812 v -1.78125 h 8.65625 z m -0.68909,6.35937 q 0,-0.75 0.42188,-1.3125 0.42187,-0.5625 1.17187,-0.875 0.74997,-0.3125 1.71872,-0.3125 0.46875,0 0.96875,0.0781 0.5,0.0781 0.875,0.23437 v -0.40625 q 0,-0.73437 -0.4375,-1.125 -0.4375,-0.40625 -1.28125,-0.40625 -0.625,0 -1.20312,0.21875 -0.5781,0.21875 -1.2031,0.64063 l -0.625,-1.28125 q 0.76563,-0.5 1.5625,-0.75 0.79685,-0.25 1.67185,-0.25 1.64062,0 2.54687,0.82812 0.92188,0.8125 0.92188,2.34375 v 2.4375 q 0,0.3125 0.10937,0.45313 0.10938,0.125 0.35938,0.15625 v 1.59375 q -0.25,0.0469 -0.46875,0.0781 -0.21875,0.0312 -0.35938,0.0312 -0.59375,0 -0.89062,-0.26562 -0.29688,-0.26563 -0.375,-0.65625 l -0.0469,-0.39063 q -0.48437,0.64063 -1.23437,1 -0.75,0.34375 -1.53125,0.34375 -0.7656,0 -1.37497,-0.3125 -0.59375,-0.3125 -0.95313,-0.85937 -0.34375,-0.54688 -0.34375,-1.23438 z m 4.78122,0.39063 q 0.17188,-0.17188 0.26563,-0.34375 0.10937,-0.1875 0.10937,-0.32813 v -0.78125 q -0.35937,-0.14062 -0.76562,-0.21875 -0.40625,-0.0937 -0.78125,-0.0937 -0.76563,0 -1.25,0.34375 -0.48435,0.32813 -0.48435,0.85938 0,0.29687 0.15625,0.5625 0.15622,0.26562 0.46872,0.42187 0.3125,0.15625 0.73438,0.15625 0.4375,0 0.85937,-0.15625 0.42188,-0.17187 0.6875,-0.42187 z m 6.99085,2.01562 q -0.98438,0 -1.875,-0.3125 -0.89063,-0.32812 -1.53125,-0.95312 l 0.70312,-1.28125 q 0.6875,0.5625 1.34375,0.82812 0.67188,0.26563 1.29688,0.26563 0.5625,0 0.90625,-0.20313 0.34375,-0.21875 0.34375,-0.625 0,-0.28125 -0.1875,-0.42187 -0.1875,-0.15625 -0.54688,-0.26563 -0.35937,-0.125 -0.875,-0.28125 -0.84375,-0.28125 -1.42187,-0.53125 -0.57813,-0.26562 -0.85938,-0.67187 -0.28125,-0.40625 -0.28125,-1.03125 0,-0.76563 0.39063,-1.3125 0.39062,-0.54688 1.07812,-0.85938 0.70313,-0.3125 1.64063,-0.3125 0.8125,0 1.54687,0.26563 0.73438,0.25 1.34375,0.82812 l -0.79687,1.23438 q -0.59375,-0.45313 -1.125,-0.65625 -0.51563,-0.21875 -1.0625,-0.21875 -0.3125,0 -0.57813,0.0781 -0.26562,0.0625 -0.4375,0.23438 -0.17187,0.17187 -0.17187,0.48437 0,0.26563 0.15625,0.42188 0.15625,0.15625 0.46875,0.28125 0.3125,0.10937 0.76562,0.26562 0.92188,0.25 1.5625,0.53125 0.64063,0.28125 0.95313,0.6875 0.32812,0.40625 0.32812,1.10938 0,1.14062 -0.84375,1.78125 -0.82812,0.64062 -2.23437,0.64062 z m 9.66211,-0.14062 -2.23438,-3.3125 -1.04687,1.03125 v 2.28125 H 62.06625 V 310.05035 H 64.035 v 6.48438 l 3.09375,-3.45313 h 2.07812 l -2.85937,3.26563 3.0625,4.40625 z"
     fill-rule="nonzero"
     id="path1250" />
  <path
     fill="#000000"
     fill-opacity="0"
     d="M 159.1575,61.092255 H 278.59057 V 116.0214 H 159.1575 Z"
     fill-rule="evenodd"
     id="path1252" />
  <path
     fill="#000000"
     d="m 204.56302,84.172255 v -10.40625 h 4.60937 q 0.71875,0 1.32813,0.29687 0.60937,0.29688 1.04687,0.79688 0.45313,0.48437 0.6875,1.10937 0.25,0.60938 0.25,1.25 0,0.67188 -0.23437,1.28125 -0.21875,0.59375 -0.65625,1.0625 -0.42188,0.45313 -0.98438,0.70313 l 2.375,3.90625 h -2.23437 l -2.14063,-3.48438 h -2.01562 v 3.48438 z m 2.03125,-5.26563 h 2.53125 q 0.39062,0 0.67187,-0.21875 0.29688,-0.23437 0.46875,-0.60937 0.1875,-0.39063 0.1875,-0.85938 0,-0.5 -0.21875,-0.85937 -0.20312,-0.375 -0.51562,-0.59375 -0.3125,-0.21875 -0.67188,-0.21875 h -2.45312 z m 9.7464,-1.42187 v 6.6875 h -2.03125 v -10.40625 h 1.625 l 5.375,6.85937 v -6.84375 h 2.01562 v 10.39063 h -1.6875 z m 11.97967,-3.71875 h 2.0625 l 3.82813,10.40625 h -2.09375 l -0.96875,-2.59375 h -3.625 l -0.95313,2.59375 h -2.07812 z m 2.46875,6.39062 -1.4375,-4.29687 -1.5,4.29687 z"
     fill-rule="nonzero"
     id="path1254" />
  <path
     fill="#000000"
     d="m 191.75982,93.147265 h -3.3125 v 8.625005 h -2.01562 v -8.625005 h -3.32813 v -1.78125 h 8.65625 z m 4.9483,2.64062 q -0.89062,0 -1.59375,0.34375 -0.70315,0.34375 -1.01565,1 v 4.640635 h -1.96875 v -7.687505 h 1.8125 v 1.65625 q 0.40625,-0.79688 1.03128,-1.25 0.64062,-0.45313 1.34375,-0.5 0.15625,0 0.23437,0 0.0937,0 0.15625,0.0156 z m 0.51862,3.71875 q 0,-0.75 0.42187,-1.3125 0.42188,-0.5625 1.17188,-0.875 0.75,-0.3125 1.71875,-0.3125 0.46875,0 0.96875,0.0781 0.5,0.0781 0.875,0.23437 v -0.40625 q 0,-0.73437 -0.4375,-1.125 -0.4375,-0.40625 -1.28125,-0.40625 -0.625,0 -1.20313,0.21875 -0.57812,0.21875 -1.20312,0.64063 l -0.625,-1.28125 q 0.76562,-0.5 1.5625,-0.75 0.79687,-0.25 1.67187,-0.25 1.64063,0 2.54688,0.82812 0.92187,0.8125 0.92187,2.34375 v 2.4375 q 0,0.3125 0.10938,0.453125 0.10937,0.125 0.35937,0.15625 v 1.59375 q -0.25,0.0469 -0.46875,0.0781 -0.21875,0.0312 -0.35937,0.0312 -0.59375,0 -0.89063,-0.26562 -0.29687,-0.26563 -0.375,-0.65625 l -0.0469,-0.39063 q -0.48438,0.64063 -1.23438,1 -0.75,0.34375 -1.53125,0.34375 -0.76562,0 -1.375,-0.3125 -0.59375,-0.3125 -0.95312,-0.85937 -0.34375,-0.54688 -0.34375,-1.234385 z m 4.78125,0.39063 q 0.17187,-0.17188 0.26562,-0.34375 0.10938,-0.1875 0.10938,-0.32813 v -0.78125 q -0.35938,-0.14062 -0.76563,-0.21875 -0.40625,-0.0937 -0.78125,-0.0937 -0.76562,0 -1.25,0.34375 -0.48437,0.32813 -0.48437,0.85938 0,0.29687 0.15625,0.5625 0.15625,0.265625 0.46875,0.421875 0.3125,0.15625 0.73437,0.15625 0.4375,0 0.85938,-0.15625 0.42187,-0.17188 0.6875,-0.421875 z m 11.30334,1.875005 h -1.96875 v -4.312505 q 0,-0.92188 -0.32812,-1.34375 -0.3125,-0.42188 -0.89063,-0.42188 -0.39062,0 -0.79687,0.20313 -0.39063,0.20312 -0.71875,0.5625 -0.32813,0.35937 -0.46875,0.82812 v 4.484385 h -1.96875 v -7.687505 h 1.78125 v 1.42187 q 0.28125,-0.48437 0.73437,-0.82812 0.46875,-0.35938 1.0625,-0.53125 0.59375,-0.1875 1.25,-0.1875 0.71875,0 1.17188,0.26562 0.46875,0.25 0.70312,0.6875 0.25,0.42188 0.34375,0.96875 0.0937,0.54688 0.0937,1.09375 z m 4.53986,0.14061 q -0.98438,0 -1.875,-0.3125 -0.89063,-0.32811 -1.53125,-0.95311 l 0.70312,-1.281255 q 0.6875,0.5625 1.34375,0.828115 0.67188,0.26564 1.29688,0.26564 0.5625,0 0.90625,-0.20314 0.34375,-0.21875 0.34375,-0.624995 0,-0.28125 -0.1875,-0.42187 -0.1875,-0.15625 -0.54688,-0.26563 -0.35937,-0.125 -0.875,-0.28125 -0.84375,-0.28125 -1.42187,-0.53125 -0.57813,-0.26562 -0.85938,-0.67187 -0.28125,-0.40625 -0.28125,-1.03125 0,-0.76563 0.39063,-1.3125 0.39062,-0.54688 1.07812,-0.85938 0.70313,-0.3125 1.64063,-0.3125 0.8125,0 1.54687,0.26563 0.73438,0.25 1.34375,0.82812 l -0.79687,1.23438 q -0.59375,-0.45313 -1.125,-0.65625 -0.51563,-0.21875 -1.0625,-0.21875 -0.3125,0 -0.57813,0.0781 -0.26562,0.0625 -0.4375,0.23438 -0.17187,0.17187 -0.17187,0.48437 0,0.26563 0.15625,0.42188 0.15625,0.15625 0.46875,0.28125 0.3125,0.10937 0.76562,0.26562 0.92188,0.25 1.5625,0.53125 0.64063,0.28125 0.95313,0.6875 0.32812,0.40625 0.32812,1.10938 0,1.140625 -0.84375,1.781245 -0.82812,0.64063 -2.23437,0.64063 z m 4.83685,-0.14061 v -5.781255 h -1 v -1.48438 h 1 v -0.46875 q 0,-0.95312 0.3125,-1.64062 0.32813,-0.70313 0.90625,-1.07813 0.57813,-0.39062 1.34375,-0.39062 0.46875,0 0.9375,0.125 0.48438,0.10937 0.95313,0.32812 l -0.39063,1.48438 q -0.21875,-0.125 -0.51562,-0.20313 -0.29688,-0.0781 -0.54688,-0.0781 -0.5,0 -0.76562,0.35937 -0.26563,0.34375 -0.26563,1.01563 v 0.54687 h 1.875 v 1.48438 h -1.875 v 5.781245 z m 8.39832,0.14061 q -0.9375,0 -1.6875,-0.3125 -0.73438,-0.3125 -1.26563,-0.85936 -0.51562,-0.5625 -0.79687,-1.281255 -0.28125,-0.71875 -0.28125,-1.51563 0,-0.79687 0.28125,-1.51562 0.28125,-0.71875 0.79687,-1.28125 0.53125,-0.5625 1.26563,-0.875 0.75,-0.3125 1.6875,-0.3125 0.9375,0 1.67187,0.3125 0.75,0.3125 1.28125,0.875 0.53125,0.5625 0.79688,1.28125 0.26562,0.71875 0.26562,1.51562 0,0.79688 -0.26562,1.51563 -0.26563,0.718755 -0.79688,1.281255 -0.51562,0.54686 -1.26562,0.85936 -0.75,0.3125 -1.6875,0.3125 z m -2,-3.968745 q 0,0.67188 0.25,1.20313 0.26562,0.51562 0.71875,0.8125 0.46875,0.281255 1.03125,0.281255 0.5625,0 1.01562,-0.296885 0.45313,-0.29687 0.71875,-0.8125 0.28125,-0.53125 0.28125,-1.20312 0,-0.65625 -0.28125,-1.1875 -0.26562,-0.53125 -0.71875,-0.8125 -0.45312,-0.29688 -1.01562,-0.29688 -0.5625,0 -1.03125,0.29688 -0.45313,0.29687 -0.71875,0.82812 -0.25,0.51563 -0.25,1.1875 z m 11.91296,-2.15625 q -0.89062,0 -1.59375,0.34375 -0.70312,0.34375 -1.01562,1 v 4.640635 h -1.96875 v -7.687505 h 1.8125 v 1.65625 q 0.40625,-0.79688 1.03125,-1.25 0.64062,-0.45313 1.34375,-0.5 0.15625,0 0.23437,0 0.0937,0 0.15625,0.0156 z m 13.03137,5.984385 h -1.96875 v -4.312505 q 0,-0.90625 -0.3125,-1.32813 -0.3125,-0.4375 -0.875,-0.4375 -0.5625,0 -1.09375,0.45313 -0.51562,0.4375 -0.73437,1.15625 v 4.468755 h -1.96875 v -4.312505 q 0,-0.92188 -0.3125,-1.34375 -0.3125,-0.42188 -0.875,-0.42188 -0.5625,0 -1.09375,0.4375 -0.51563,0.4375 -0.73438,1.15625 v 4.484385 h -1.96875 v -7.687505 h 1.78125 v 1.42187 q 0.4375,-0.73437 1.17188,-1.14062 0.73437,-0.40625 1.6875,-0.40625 0.95312,0 1.48437,0.46875 0.53125,0.46875 0.67188,1.15625 0.46875,-0.78125 1.1875,-1.20313 0.73437,-0.42187 1.64062,-0.42187 0.71875,0 1.17188,0.26562 0.45312,0.25 0.70312,0.6875 0.25,0.42188 0.34375,0.96875 0.0937,0.54688 0.0937,1.09375 z"
     fill-rule="nonzero"
     id="path1256" />
  <path
     fill="#000000"
     d="m 27.18282,9.078125 v 5.14062 h 1.8125 q 0.35938,0 0.51563,0.14063 0.15625,0.125 0.15625,0.34375 0,0.21875 -0.15625,0.35937 -0.15625,0.14063 -0.51563,0.14063 h -4.125 q -0.34375,0 -0.5,-0.14063 -0.15625,-0.14062 -0.15625,-0.35937 0,-0.21875 0.15625,-0.34375 0.15625,-0.14063 0.5,-0.14063 h 1.32813 V 2.46875 h -1.32813 q -0.34375,0 -0.5,-0.125 -0.15625,-0.140625 -0.15625,-0.359375 0,-0.21875 0.15625,-0.359375 0.15625,-0.140625 0.5,-0.140625 h 5.95313 q 1.84375,0 3.09375,1.171875 1.26562,1.171875 1.26562,2.625 0,1.062495 -0.78125,1.999995 -0.78125,0.92188 -2.60937,1.54688 1.0625,0.71875 1.8125,1.64062 0.75,0.90625 2.40625,3.75 h 0.75 q 0.34375,0 0.5,0.14063 0.15625,0.125 0.15625,0.34375 0,0.21875 -0.15625,0.35937 -0.15625,0.14063 -0.5,0.14063 h -1.3125 q -1.82813,-3.26563 -2.84375,-4.375 -1,-1.125 -2.29688,-1.75 z m 0,-0.98438 h 2.6875 q 1.28125,0 2.32813,-0.46875 1.04687,-0.46875 1.51562,-1.09375 0.48438,-0.64062 0.48438,-1.29687 0,-0.984375 -1,-1.875 Q 32.21407,2.46875 30.80782,2.46875 h -3.625 z m 22.43359,7.10938 H 48.35079 L 41.08516,2.9375 v 11.281245 h 1.82813 q 0.35937,0 0.5,0.14063 0.15625,0.125 0.15625,0.34375 0,0.21875 -0.15625,0.35937 -0.14063,0.14063 -0.5,0.14063 h -3.625 q -0.35938,0 -0.51563,-0.14063 -0.15625,-0.14062 -0.15625,-0.35937 0,-0.21875 0.15625,-0.34375 0.15625,-0.14063 0.51563,-0.14063 h 0.8125 V 2.46875 h -1.3125 q -0.35938,0 -0.51563,-0.125 -0.14062,-0.140625 -0.14062,-0.359375 0,-0.21875 0.14062,-0.359375 0.15625,-0.140625 0.51563,-0.140625 h 2.57812 l 7.26563,12.29687 V 2.46875 h -1.82813 q -0.34375,0 -0.5,-0.125 -0.15625,-0.140625 -0.15625,-0.359375 0,-0.21875 0.14063,-0.359375 0.15625,-0.140625 0.51562,-0.140625 h 3.64063 q 0.34375,0 0.5,0.140625 0.15625,0.140625 0.15625,0.359375 0,0.21875 -0.15625,0.359375 -0.15625,0.125 -0.5,0.125 h -0.82813 z m 12.8086,-4.57813 h -6.46875 l -1.3125,3.59375 h 1.875 q 0.35937,0 0.5,0.14063 0.15625,0.125 0.15625,0.34375 0,0.21875 -0.15625,0.35937 -0.14063,0.14063 -0.5,0.14063 h -3.67188 q -0.35937,0 -0.51562,-0.14063 -0.14063,-0.14062 -0.14063,-0.35937 0,-0.21875 0.14063,-0.34375 0.15625,-0.14063 0.51562,-0.14063 h 0.76563 L 57.95626,2.46875 h -2.90625 q -0.35938,0 -0.51563,-0.125 -0.14062,-0.140625 -0.14062,-0.359375 0,-0.21875 0.14062,-0.359375 0.15625,-0.140625 0.51563,-0.140625 h 4.95312 l 4.8125,12.73437 h 0.75 q 0.35938,0 0.5,0.14063 0.15625,0.125 0.15625,0.34375 0,0.21875 -0.15625,0.35937 -0.14062,0.14063 -0.5,0.14063 h -3.65625 q -0.375,0 -0.53125,-0.14063 -0.14062,-0.14062 -0.14062,-0.35937 0,-0.21875 0.14062,-0.34375 0.15625,-0.14063 0.53125,-0.14063 h 1.875 z m -0.375,-0.98437 -2.71875,-7.171875 h -0.35938 l -2.64062,7.171875 z m 16.88672,0.46875 v 4.21875 q -1.125,0.625 -2.25,0.9375 -1.10938,0.32812 -2.21875,0.32812 -1.57813,0 -2.78125,-0.46875 -1.20313,-0.46875 -2.04688,-1.3125 -0.82812,-0.84375 -1.29687,-1.89062 -0.45313,-1.04688 -0.45313,-2.65625 v -1.79688 q 0,-1.624995 0.79688,-3.14062 0.8125,-1.53125 2.20312,-2.34375 1.39063,-0.8125 3.03125,-0.8125 2.39063,0 4.03125,1.296875 0,-0.5625 0.0312,-0.671875 0.0469,-0.125 0.17188,-0.21875 0.125,-0.09375 0.29687,-0.09375 0.20313,0 0.34375,0.15625 0.14063,0.15625 0.14063,0.5 V 4.375 q 0,0.359375 -0.14063,0.515625 -0.14062,0.140625 -0.34375,0.140625 -0.20312,0 -0.34375,-0.125 -0.125,-0.140625 -0.14062,-0.484375 -0.0625,-1 -1.29688,-1.625 Q 75.4523,2.15625 74.0148,2.15625 72.65543,2.15625 71.54605,2.75 70.4523,3.34375 69.5148,5 68.87418,6.093745 68.87418,7.484375 v 1.78125 q 0,2.45312 1.5,3.90625 1.5,1.4375 4.14062,1.4375 0.89063,0 1.64063,-0.1875 0.76562,-0.1875 1.79687,-0.65625 v -3.65625 h -3.39062 q -0.35938,0 -0.51563,-0.125 -0.14062,-0.14063 -0.14062,-0.35938 0,-0.21875 0.14062,-0.35937 0.15625,-0.14063 0.51563,-0.14063 h 4.73437 q 0.34375,0 0.5,0.14063 0.15625,0.14062 0.15625,0.35937 0,0.15625 -0.0937,0.28125 -0.0937,0.125 -0.21875,0.17188 -0.10937,0.0312 -0.70312,0.0312 z M 88.49532,0.5 v 13.718745 h 3.85938 q 0.375,0 0.51562,0.14063 0.15625,0.125 0.15625,0.34375 0,0.21875 -0.15625,0.35937 -0.14062,0.14063 -0.51562,0.14063 h -8.71875 q -0.34375,0 -0.5,-0.14063 -0.15625,-0.14062 -0.15625,-0.35937 0,-0.21875 0.15625,-0.34375 0.15625,-0.14063 0.5,-0.14063 h 3.875 V 1.484375 H 84.6672 q -0.34375,0 -0.5,-0.140625 -0.15625,-0.140625 -0.15625,-0.359375 0,-0.203125 0.14062,-0.34375 Q 84.30782,0.5 84.6672,0.5 Z M 102.88204,0 v 2.546875 h -1.45313 V 0 Z m 0.0312,5.046875 v 9.17187 h 3.875 q 0.35937,0 0.51562,0.14063 0.15625,0.125 0.15625,0.34375 0,0.21875 -0.15625,0.35937 -0.15625,0.14063 -0.51562,0.14063 h -8.71875 q -0.35938,0 -0.51563,-0.14063 -0.14062,-0.14062 -0.14062,-0.35937 0,-0.21875 0.14062,-0.34375 0.15625,-0.14063 0.51563,-0.14063 h 3.85937 v -8.17187 h -2.85937 q -0.35938,0 -0.51563,-0.140625 -0.15625,-0.140625 -0.15625,-0.34375 0,-0.234375 0.14063,-0.375 0.15625,-0.140625 0.53125,-0.140625 z M 113.09683,0.5 v 6.515625 q 1.78125,-2.3125 4.29688,-2.3125 2.15625,0 3.6875,1.5625 1.53125,1.5625 1.53125,3.84375 0,2.29687 -1.54688,3.89062 -1.54687,1.59375 -3.67187,1.59375 -2.57813,0 -4.29688,-2.32812 v 1.9375 h -2.3125 q -0.35937,0 -0.51562,-0.14063 -0.14063,-0.14062 -0.14063,-0.35937 0,-0.21875 0.14063,-0.34375 0.15625,-0.14063 0.51562,-0.14063 h 1.32813 V 1.484375 h -1.32813 q -0.35937,0 -0.51562,-0.140625 -0.14063,-0.140625 -0.14063,-0.359375 0,-0.203125 0.14063,-0.34375 Q 110.42496,0.5 110.78433,0.5 Z m 8.53125,9.656245 q 0,-1.875 -1.28125,-3.15625 -1.26562,-1.29687 -2.98437,-1.29687 -1.70313,0 -2.98438,1.29687 -1.28125,1.28125 -1.28125,3.15625 0,1.85938 1.28125,3.15625 1.28125,1.29688 2.98438,1.29688 1.71875,0 2.98437,-1.29688 1.28125,-1.29687 1.28125,-3.15625 z m 29.99219,-1.78125 q 0,1.96875 -0.79687,3.65625 -0.79688,1.6875 -2.20313,2.625 -1.39062,0.9375 -3,0.9375 -2.375,0 -4.1875,-2.01562 -1.8125,-2.03125 -1.8125,-5.20313 0,-3.17187 1.8125,-5.187495 1.8125,-2.015625 4.1875,-2.015625 1.60938,0 3,0.9375 1.39063,0.9375 2.1875,2.625 0.8125,1.67187 0.8125,3.64062 z m -1,0 q 0,-2.39062 -1.39062,-4.29687 -1.39063,-1.921875 -3.60938,-1.921875 -2.07812,0 -3.54687,1.828125 -1.46875,1.8125 -1.46875,4.39062 0,2.75 1.53125,4.5 1.54687,1.73438 3.48437,1.73438 2.21875,0 3.60938,-1.90625 1.39062,-1.90625 1.39062,-4.32813 z m 10.2461,6.82813 h -1.65625 l -4.04688,-9.15625 h -1.01562 q -0.34375,0 -0.5,-0.140625 -0.15625,-0.140625 -0.15625,-0.359375 0,-0.21875 0.15625,-0.359375 0.15625,-0.140625 0.5,-0.140625 h 3.70312 q 0.34375,0 0.5,0.140625 0.15625,0.140625 0.15625,0.375 0,0.203125 -0.15625,0.34375 -0.15625,0.140625 -0.5,0.140625 h -1.64062 l 3.60937,8.17187 h 0.4375 l 3.54688,-8.17187 h -1.64063 q -0.35937,0 -0.51562,-0.140625 -0.14063,-0.140625 -0.14063,-0.359375 0,-0.21875 0.14063,-0.359375 0.15625,-0.140625 0.51562,-0.140625 h 3.70313 q 0.35937,0 0.5,0.140625 0.15625,0.140625 0.15625,0.375 0,0.203125 -0.15625,0.34375 -0.14063,0.140625 -0.5,0.140625 h -1 z m 18.87109,-4.84375 h -10.03125 q 0.25,1.90625 1.59375,3.07812 1.34375,1.17188 3.32812,1.17188 1.09375,0 2.29688,-0.35938 1.21875,-0.375 1.98437,-0.96875 0.21875,-0.17187 0.375,-0.17187 0.1875,0 0.32813,0.14062 0.14062,0.14063 0.14062,0.34375 0,0.20313 -0.1875,0.39063 -0.5625,0.57812 -2,1.09375 -1.42187,0.51562 -2.9375,0.51562 -2.53125,0 -4.23437,-1.65625 -1.6875,-1.67187 -1.6875,-4.01562 0,-2.15625 1.57812,-3.6875 1.59375,-1.53125 3.9375,-1.53125 2.42188,0 3.96875,1.57812 1.5625,1.57813 1.54688,4.07813 z m -1,-1 q -0.29688,-1.625 -1.54688,-2.64063 -1.23437,-1.01562 -2.96875,-1.01562 -1.71875,0 -2.96875,1.01562 -1.23437,1 -1.53125,2.64063 z m 8.90234,-4.3125 v 2.48437 q 1.92188,-1.73437 2.875,-2.218745 0.95313,-0.5 1.76563,-0.5 0.875,0 1.625,0.59375 0.76562,0.578125 0.76562,0.890625 0,0.21875 -0.15625,0.375 -0.14062,0.14062 -0.35937,0.14062 -0.125,0 -0.20313,-0.0312 -0.0781,-0.0469 -0.3125,-0.28125 -0.40625,-0.40625 -0.71875,-0.54687 -0.29687,-0.15625 -0.59375,-0.15625 -0.64062,0 -1.54687,0.51562 -0.90625,0.51563 -3.14063,2.51563 v 5.39062 h 4.35938 q 0.35937,0 0.5,0.14063 0.15625,0.125 0.15625,0.34375 0,0.21875 -0.15625,0.35937 -0.14063,0.14063 -0.5,0.14063 h -7.73438 q -0.34375,0 -0.5,-0.125 -0.15625,-0.14063 -0.15625,-0.35938 0,-0.20312 0.14063,-0.32812 0.15625,-0.14063 0.51562,-0.14063 h 2.39063 v -8.20312 h -1.82813 q -0.34375,0 -0.5,-0.140625 -0.15625,-0.140625 -0.15625,-0.359375 0,-0.21875 0.14063,-0.359375 0.15625,-0.140625 0.51562,-0.140625 z m 16.43363,10.15625 h -1.65625 l -4.04688,-9.15625 h -1.01562 q -0.34375,0 -0.5,-0.140625 -0.15625,-0.140625 -0.15625,-0.359375 0,-0.21875 0.15625,-0.359375 0.15625,-0.140625 0.5,-0.140625 h 3.70312 q 0.34375,0 0.5,0.140625 0.15625,0.140625 0.15625,0.375 0,0.203125 -0.15625,0.34375 -0.15625,0.140625 -0.5,0.140625 h -1.64062 l 3.60937,8.17187 h 0.4375 l 3.54688,-8.17187 h -1.64063 q -0.35937,0 -0.51562,-0.140625 -0.14063,-0.140625 -0.14063,-0.359375 0,-0.21875 0.14063,-0.359375 0.15625,-0.140625 0.51562,-0.140625 h 3.70313 q 0.35937,0 0.5,0.140625 0.15625,0.140625 0.15625,0.375 0,0.203125 -0.15625,0.34375 -0.14063,0.140625 -0.5,0.140625 h -1 z M 218.10082,0 V 2.546875 H 216.6477 V 0 Z m 0.0312,5.046875 v 9.17187 h 3.875 q 0.35938,0 0.51563,0.14063 0.15625,0.125 0.15625,0.34375 0,0.21875 -0.15625,0.35937 -0.15625,0.14063 -0.51563,0.14063 h -8.71875 q -0.35937,0 -0.51562,-0.14063 -0.14063,-0.14062 -0.14063,-0.35937 0,-0.21875 0.14063,-0.34375 0.15625,-0.14063 0.51562,-0.14063 h 3.85938 v -8.17187 h -2.85938 q -0.35937,0 -0.51562,-0.140625 -0.15625,-0.140625 -0.15625,-0.34375 0,-0.234375 0.14062,-0.375 0.15625,-0.140625 0.53125,-0.140625 z m 19.21485,5.3125 h -10.03125 q 0.25,1.90625 1.59375,3.07812 1.34375,1.17188 3.32812,1.17188 1.09375,0 2.29688,-0.35938 1.21875,-0.375 1.98437,-0.96875 0.21875,-0.17187 0.375,-0.17187 0.1875,0 0.32813,0.14062 0.14062,0.14063 0.14062,0.34375 0,0.20313 -0.1875,0.39063 -0.5625,0.57812 -2,1.09375 -1.42187,0.51562 -2.9375,0.51562 -2.53125,0 -4.23437,-1.65625 -1.6875,-1.67187 -1.6875,-4.01562 0,-2.15625 1.57812,-3.6875 1.59375,-1.53125 3.9375,-1.53125 2.42188,0 3.96875,1.57812 1.5625,1.57813 1.54688,4.07813 z m -1,-1 q -0.29688,-1.625 -1.54688,-2.64063 -1.23437,-1.01562 -2.96875,-1.01562 -1.71875,0 -2.96875,1.01562 -1.23437,1 -1.53125,2.64063 z m 13.46484,5.84375 -1.21875,0.0156 -2.17188,-6.32812 -2.15625,6.32812 -1.21875,-0.0156 -2.03125,-9.15625 h -0.48437 q -0.34375,0 -0.5,-0.140625 -0.15625,-0.140625 -0.15625,-0.359375 0,-0.21875 0.15625,-0.359375 0.15625,-0.140625 0.5,-0.140625 h 2.70312 q 0.35938,0 0.5,0.140625 0.15625,0.140625 0.15625,0.375 0,0.203125 -0.15625,0.34375 -0.14062,0.140625 -0.5,0.140625 h -1.25 l 1.75,7.8125 2.09375,-6.23438 h 1.17188 l 2.15625,6.23438 1.67187,-7.8125 h -1.23437 q -0.35938,0 -0.51563,-0.140625 -0.15625,-0.140625 -0.15625,-0.359375 0,-0.21875 0.15625,-0.359375 0.15625,-0.140625 0.51563,-0.140625 h 2.6875 q 0.375,0 0.51562,0.140625 0.15625,0.140625 0.15625,0.375 0,0.203125 -0.15625,0.34375 -0.14062,0.140625 -0.51562,0.140625 h -0.46875 z"
     fill-rule="nonzero"
     id="path1260" />
</svg>
