<?xml version="1.0" encoding="UTF-8" standalone="no"?>
<svg
   version="1.1"
   viewBox="0 0 649.39227 253.39658"
   fill="none"
   stroke="none"
   stroke-linecap="square"
   stroke-miterlimit="10"
   id="svg1177"
   sodipodi:docname="fig_rna_transform.svg"
   width="649.39227"
   height="253.39658"
   inkscape:version="1.1.2 (0a00cf5339, 2022-02-04)"
   xmlns:inkscape="http://www.inkscape.org/namespaces/inkscape"
   xmlns:sodipodi="http://sodipodi.sourceforge.net/DTD/sodipodi-0.dtd"
   xmlns="http://www.w3.org/2000/svg"
   xmlns:svg="http://www.w3.org/2000/svg">
  <defs
     id="defs1181" />
  <sodipodi:namedview
     id="namedview1179"
     pagecolor="#ffffff"
     bordercolor="#666666"
     borderopacity="1.0"
     inkscape:pageshadow="2"
     inkscape:pageopacity="0.0"
     inkscape:pagecheckerboard="0"
     showgrid="false"
     fit-margin-top="0"
     fit-margin-left="0"
     fit-margin-right="0"
     fit-margin-bottom="0"
     inkscape:zoom="2.96875"
     inkscape:cx="300.46316"
     inkscape:cy="82.021053"
     inkscape:window-width="3367"
     inkscape:window-height="1413"
     inkscape:window-x="73"
     inkscape:window-y="27"
     inkscape:window-maximized="1"
     inkscape:current-layer="svg1177" />
  <clipPath
     id="g34180be4601_0_47.0">
    <path
       d="M 0,0 H 960 V 540 H 0 Z"
       clip-rule="nonzero"
       id="path1056" />
  </clipPath>
  <path
     fill="#f3f3f3"
     fill-opacity="0.6604"
     d="m 266.22656,147.02131 v 0 c 0,-19.49088 22.16721,-35.29134 49.51181,-35.29134 v 0 c 27.34464,0 49.51181,15.80046 49.51181,35.29134 v 0 c 0,19.49086 -22.16717,35.29134 -49.51181,35.29134 v 0 c -27.3446,0 -49.51181,-15.80048 -49.51181,-35.29134 z"
     fill-rule="evenodd"
     id="path1061" />
  <path
     stroke="#595959"
     stroke-width="1"
     stroke-linejoin="round"
     stroke-linecap="butt"
     d="m 266.22656,147.02131 v 0 c 0,-19.49088 22.16721,-35.29134 49.51181,-35.29134 v 0 c 27.34464,0 49.51181,15.80046 49.51181,35.29134 v 0 c 0,19.49086 -22.16717,35.29134 -49.51181,35.29134 v 0 c -27.3446,0 -49.51181,-15.80048 -49.51181,-35.29134 z"
     fill-rule="evenodd"
     id="path1063" />
  <path
     fill="#000000"
     fill-opacity="0"
     d="m 262.19507,128.4385 h 107.08661 v 35.55905 H 262.19507 Z"
     fill-rule="evenodd"
     id="path1065" />
  <path
     fill="#000000"
     d="m 302.72827,150.23851 v -9.46875 h 4.1875 q 0.65625,0 1.20313,0.26562 0.5625,0.26563 0.96875,0.71875 0.40625,0.45313 0.625,1.01563 0.21875,0.5625 0.21875,1.15625 0,0.59375 -0.21875,1.15625 -0.20313,0.54687 -0.59375,0.96875 -0.375,0.40625 -0.89063,0.625 l 2.15625,3.5625 h -2.03125 l -1.9375,-3.17188 h -1.84375 v 3.17188 z m 1.84375,-4.78125 h 2.29688 q 0.35937,0 0.625,-0.20313 0.26562,-0.21875 0.42187,-0.5625 0.15625,-0.34375 0.15625,-0.76562 0,-0.45313 -0.1875,-0.79688 -0.1875,-0.34375 -0.46875,-0.53125 -0.28125,-0.20312 -0.625,-0.20312 h -2.21875 z m 8.86316,-1.29688 v 6.07813 h -1.84375 v -9.46875 h 1.46875 l 4.89062,6.25 v -6.23438 h 1.84375 v 9.45313 h -1.53125 z m 10.90372,-3.39062 h 1.85937 l 3.48438,9.46875 h -1.89063 l -0.89062,-2.35938 h -3.29688 l -0.875,2.35938 h -1.89062 z m 2.23437,5.8125 -1.3125,-3.90625 -1.35937,3.90625 z"
     fill-rule="nonzero"
     id="path1067" />
  <path
     fill="#ffffff"
     d="m 365.15268,168.91263 23.24625,17.24121 1.5512,-2.09451 1.08445,7.29425 -7.28919,1.08371 1.55118,-2.09449 -23.24625,-17.24118 z"
     fill-rule="evenodd"
     id="path1069" />
  <path
     stroke="#595959"
     stroke-width="1"
     stroke-linejoin="round"
     stroke-linecap="butt"
     d="m 365.15268,168.91263 23.24625,17.24121 1.5512,-2.09451 1.08445,7.29425 -7.28919,1.08371 1.55118,-2.09449 -23.24625,-17.24118 z"
     fill-rule="evenodd"
     id="path1071" />
  <path
     fill="#f3f3f3"
     fill-opacity="0.6604"
     d="m 385.87945,217.60523 v 0 c 0,-19.49088 22.16721,-35.29132 49.51181,-35.29132 v 0 c 27.34463,0 49.51184,15.80045 49.51184,35.29132 v 0 c 0,19.49088 -22.16721,35.29135 -49.51184,35.29135 v 0 c -27.3446,0 -49.51181,-15.80048 -49.51181,-35.29135 z"
     fill-rule="evenodd"
     id="path1073" />
  <path
     stroke="#595959"
     stroke-width="1"
     stroke-linejoin="round"
     stroke-linecap="butt"
     d="m 385.87945,217.60523 v 0 c 0,-19.49088 22.16721,-35.29132 49.51181,-35.29132 v 0 c 27.34463,0 49.51184,15.80045 49.51184,35.29132 v 0 c 0,19.49088 -22.16721,35.29135 -49.51184,35.29135 v 0 c -27.3446,0 -49.51181,-15.80048 -49.51181,-35.29135 z"
     fill-rule="evenodd"
     id="path1075" />
  <path
     fill="#000000"
     fill-opacity="0"
     d="m 385.88016,199.02139 h 99.02362 v 37.16534 h -99.02362 z"
     fill-rule="evenodd"
     id="path1077" />
  <path
     fill="#000000"
     d="m 400.29114,222.10141 v -10.40625 h 4.60937 q 0.71875,0 1.32813,0.29687 0.60937,0.29688 1.04687,0.79688 0.45313,0.48437 0.6875,1.10937 0.25,0.60938 0.25,1.25 0,0.67188 -0.23437,1.28125 -0.21875,0.59375 -0.65625,1.0625 -0.42188,0.45313 -0.98438,0.70313 l 2.375,3.90625 h -2.23437 l -2.14063,-3.48438 h -2.01562 v 3.48438 z m 2.03125,-5.26563 h 2.53125 q 0.39062,0 0.67187,-0.21875 0.29688,-0.23437 0.46875,-0.60937 0.1875,-0.39063 0.1875,-0.85938 0,-0.5 -0.21875,-0.85937 -0.20312,-0.375 -0.51562,-0.59375 -0.3125,-0.21875 -0.67188,-0.21875 h -2.45312 z m 10.8262,5.40625 q -0.92187,0 -1.67187,-0.3125 -0.75,-0.3125 -1.28125,-0.85937 -0.51563,-0.54688 -0.8125,-1.25 -0.28125,-0.71875 -0.28125,-1.51563 0,-1.09375 0.48437,-2 0.5,-0.92187 1.40625,-1.46875 0.92188,-0.54687 2.17188,-0.54687 1.26562,0 2.15625,0.54687 0.89062,0.54688 1.35937,1.45313 0.48438,0.90625 0.48438,1.9375 0,0.1875 -0.0156,0.375 -0.0156,0.17187 -0.0312,0.29687 h -5.9375 q 0.0625,0.57813 0.34375,1.01563 0.29688,0.4375 0.73438,0.67187 0.45312,0.21875 0.96875,0.21875 0.57812,0 1.09375,-0.28125 0.53125,-0.28125 0.71875,-0.75 l 1.6875,0.46875 q -0.28125,0.57813 -0.79688,1.04688 -0.51562,0.45312 -1.21875,0.70312 -0.70312,0.25 -1.5625,0.25 z m -2,-4.59375 h 4.01563 q -0.0625,-0.59375 -0.34375,-1.01562 -0.26563,-0.4375 -0.70313,-0.67188 -0.4375,-0.25 -0.98437,-0.25 -0.53125,0 -0.96875,0.25 -0.42188,0.23438 -0.70313,0.67188 -0.26562,0.42187 -0.3125,1.01562 z m 11.82602,4.59375 q -0.89062,0 -1.57812,-0.39062 -0.6875,-0.40625 -1.0625,-1.09375 v 4.46875 h -1.96875 v -10.8125 h 1.71875 v 1.32812 q 0.4375,-0.67187 1.10937,-1.0625 0.67188,-0.39062 1.54688,-0.39062 0.76562,0 1.42187,0.3125 0.65625,0.29687 1.14063,0.85937 0.48437,0.54688 0.75,1.26563 0.28125,0.70312 0.28125,1.51562 0,1.125 -0.4375,2.03125 -0.4375,0.90625 -1.1875,1.4375 -0.75,0.53125 -1.73438,0.53125 z m -0.65625,-1.67187 q 0.45313,0 0.8125,-0.1875 0.375,-0.1875 0.64063,-0.51563 0.26562,-0.32812 0.40625,-0.75 0.14062,-0.42187 0.14062,-0.875 0,-0.48437 -0.15625,-0.89062 -0.15625,-0.40625 -0.45312,-0.71875 -0.28125,-0.32813 -0.67188,-0.5 -0.39062,-0.17188 -0.84375,-0.17188 -0.28125,0 -0.5625,0.0937 -0.28125,0.0937 -0.54687,0.28125 -0.26563,0.17188 -0.46875,0.40625 -0.1875,0.23438 -0.28125,0.51563 v 1.79687 q 0.17187,0.42188 0.46875,0.78125 0.3125,0.34375 0.70312,0.54688 0.39063,0.1875 0.8125,0.1875 z m 9.91708,-4.45313 q -0.89062,0 -1.59375,0.34375 -0.70312,0.34375 -1.01562,1 v 4.64063 h -1.96875 v -7.6875 h 1.8125 v 1.65625 q 0.40625,-0.79688 1.03125,-1.25 0.64062,-0.45313 1.34375,-0.5 0.15625,0 0.23437,0 0.0937,0 0.15625,0.0156 z m 4.55372,6.125 q -0.92188,0 -1.67188,-0.3125 -0.75,-0.3125 -1.28125,-0.85937 -0.51562,-0.54688 -0.8125,-1.25 -0.28125,-0.71875 -0.28125,-1.51563 0,-1.09375 0.48438,-2 0.5,-0.92187 1.40625,-1.46875 0.92187,-0.54687 2.17187,-0.54687 1.26563,0 2.15625,0.54687 0.89063,0.54688 1.35938,1.45313 0.48437,0.90625 0.48437,1.9375 0,0.1875 -0.0156,0.375 -0.0156,0.17187 -0.0312,0.29687 h -5.9375 q 0.0625,0.57813 0.34375,1.01563 0.29687,0.4375 0.73437,0.67187 0.45313,0.21875 0.96875,0.21875 0.57813,0 1.09375,-0.28125 0.53125,-0.28125 0.71875,-0.75 l 1.6875,0.46875 q -0.28125,0.57813 -0.79687,1.04688 -0.51563,0.45312 -1.21875,0.70312 -0.70313,0.25 -1.5625,0.25 z m -2,-4.59375 h 4.01562 q -0.0625,-0.59375 -0.34375,-1.01562 -0.26562,-0.4375 -0.70312,-0.67188 -0.4375,-0.25 -0.98438,-0.25 -0.53125,0 -0.96875,0.25 -0.42187,0.23438 -0.70312,0.67188 -0.26563,0.42187 -0.3125,1.01562 z m 10.04476,4.59375 q -0.98437,0 -1.875,-0.3125 -0.89062,-0.32812 -1.53125,-0.95312 l 0.70313,-1.28125 q 0.6875,0.5625 1.34375,0.82812 0.67187,0.26563 1.29687,0.26563 0.5625,0 0.90625,-0.20313 0.34375,-0.21875 0.34375,-0.625 0,-0.28125 -0.1875,-0.42187 -0.1875,-0.15625 -0.54687,-0.26563 -0.35938,-0.125 -0.875,-0.28125 -0.84375,-0.28125 -1.42188,-0.53125 -0.57812,-0.26562 -0.85937,-0.67187 -0.28125,-0.40625 -0.28125,-1.03125 0,-0.76563 0.39062,-1.3125 0.39063,-0.54688 1.07813,-0.85938 0.70312,-0.3125 1.64062,-0.3125 0.8125,0 1.54688,0.26563 0.73437,0.25 1.34375,0.82812 l -0.79688,1.23438 q -0.59375,-0.45313 -1.125,-0.65625 -0.51562,-0.21875 -1.0625,-0.21875 -0.3125,0 -0.57812,0.0781 -0.26563,0.0625 -0.4375,0.23438 -0.17188,0.17187 -0.17188,0.48437 0,0.26563 0.15625,0.42188 0.15625,0.15625 0.46875,0.28125 0.3125,0.10937 0.76563,0.26562 0.92187,0.25 1.5625,0.53125 0.64062,0.28125 0.95312,0.6875 0.32813,0.40625 0.32813,1.10938 0,1.14062 -0.84375,1.78125 -0.82813,0.64062 -2.23438,0.64062 z m 7.97458,0 q -0.92187,0 -1.67187,-0.3125 -0.75,-0.3125 -1.28125,-0.85937 -0.51563,-0.54688 -0.8125,-1.25 -0.28125,-0.71875 -0.28125,-1.51563 0,-1.09375 0.48437,-2 0.5,-0.92187 1.40625,-1.46875 0.92188,-0.54687 2.17188,-0.54687 1.26562,0 2.15625,0.54687 0.89062,0.54688 1.35937,1.45313 0.48438,0.90625 0.48438,1.9375 0,0.1875 -0.0156,0.375 -0.0156,0.17187 -0.0312,0.29687 h -5.9375 q 0.0625,0.57813 0.34375,1.01563 0.29688,0.4375 0.73438,0.67187 0.45312,0.21875 0.96875,0.21875 0.57812,0 1.09375,-0.28125 0.53125,-0.28125 0.71875,-0.75 l 1.6875,0.46875 q -0.28125,0.57813 -0.79688,1.04688 -0.51562,0.45312 -1.21875,0.70312 -0.70312,0.25 -1.5625,0.25 z m -2,-4.59375 h 4.01563 q -0.0625,-0.59375 -0.34375,-1.01562 -0.26563,-0.4375 -0.70313,-0.67188 -0.4375,-0.25 -0.98437,-0.25 -0.53125,0 -0.96875,0.25 -0.42188,0.23438 -0.70313,0.67188 -0.26562,0.42187 -0.3125,1.01562 z m 14.35727,4.45313 h -1.96875 v -4.3125 q 0,-0.92188 -0.32812,-1.34375 -0.3125,-0.42188 -0.89063,-0.42188 -0.39062,0 -0.79687,0.20313 -0.39063,0.20312 -0.71875,0.5625 -0.32813,0.35937 -0.46875,0.82812 v 4.48438 h -1.96875 v -7.6875 h 1.78125 v 1.42187 q 0.28125,-0.48437 0.73437,-0.82812 0.46875,-0.35938 1.0625,-0.53125 0.59375,-0.1875 1.25,-0.1875 0.71875,0 1.17188,0.26562 0.46875,0.25 0.70312,0.6875 0.25,0.42188 0.34375,0.96875 0.0937,0.54688 0.0937,1.09375 z m 6.27713,-0.39063 q -0.25,0.0937 -0.60937,0.23438 -0.34375,0.125 -0.75,0.20312 -0.40625,0.0781 -0.8125,0.0781 -0.54688,0 -1,-0.1875 -0.45313,-0.1875 -0.73438,-0.59375 -0.26562,-0.42188 -0.26562,-1.10938 v -4.40625 h -1 v -1.51562 h 1 v -2.48438 h 1.96875 v 2.48438 h 1.60937 v 1.51562 h -1.60937 v 3.75 q 0.0156,0.40625 0.21875,0.57813 0.20312,0.17187 0.51562,0.17187 0.3125,0 0.59375,-0.0937 0.29688,-0.10937 0.46875,-0.1875 z"
     fill-rule="nonzero"
     id="path1079" />
  <path
     fill="#ffffff"
     d="m 496.14694,214.98203 20.55115,0.0251 v -2.6063 l 5.21264,5.21897 -5.21264,5.20623 v -2.60629 l -20.55115,-0.0251 z"
     fill-rule="evenodd"
     id="path1081" />
  <path
     stroke="#595959"
     stroke-width="1"
     stroke-linejoin="round"
     stroke-linecap="butt"
     d="m 496.14694,214.98203 20.55115,0.0251 v -2.6063 l 5.21264,5.21897 -5.21264,5.20623 v -2.60629 l -20.55115,-0.0251 z"
     fill-rule="evenodd"
     id="path1083" />
  <path
     fill="#f3f3f3"
     fill-opacity="0.6604"
     d="m 529.12431,217.60406 v 0 c 0,-19.49084 23.97211,-35.29132 53.54327,-35.29132 v 0 c 29.57117,0 53.54334,15.80048 53.54334,35.29132 v 0 c 0,19.49088 -23.97217,35.29135 -53.54334,35.29135 v 0 c -29.57116,0 -53.54327,-15.80048 -53.54327,-35.29135 z"
     fill-rule="evenodd"
     id="path1085" />
  <path
     stroke="#595959"
     stroke-width="1"
     stroke-linejoin="round"
     stroke-linecap="butt"
     d="m 529.12431,217.60406 v 0 c 0,-19.49084 23.97211,-35.29132 53.54327,-35.29132 v 0 c 29.57117,0 53.54334,15.80048 53.54334,35.29132 v 0 c 0,19.49088 -23.97217,35.29135 -53.54334,35.29135 v 0 c -29.57116,0 -53.54327,-15.80048 -53.54327,-35.29135 z"
     fill-rule="evenodd"
     id="path1087" />
  <path
     fill="#000000"
     fill-opacity="0"
     d="m 515.94341,190.13949 h 133.44885 v 51.71655 H 515.94341 Z"
     fill-rule="evenodd"
     id="path1089" />
  <path
     fill="#000000"
     d="m 546.95907,212.00201 q -0.92188,0 -1.75,-0.375 -0.8125,-0.375 -1.4375,-1.03125 -0.60938,-0.65625 -0.96875,-1.53125 -0.34375,-0.89063 -0.34375,-1.90625 0,-0.96875 0.34375,-1.82813 0.35937,-0.875 0.98437,-1.51562 0.625,-0.65625 1.45313,-1.03125 0.84375,-0.375 1.82812,-0.375 1.34375,0 2.29688,0.57812 0.95312,0.5625 1.42187,1.48438 l -1.35937,1.01562 q -0.35938,-0.70312 -1.01563,-1.07812 -0.64062,-0.375 -1.40625,-0.375 -0.59375,0 -1.09375,0.26562 -0.48437,0.25 -0.84375,0.6875 -0.35937,0.4375 -0.5625,1.01563 -0.1875,0.5625 -0.1875,1.20312 0,0.6875 0.20313,1.26563 0.20312,0.5625 0.57812,1 0.39063,0.42187 0.89063,0.67187 0.51562,0.23438 1.125,0.23438 0.71875,0 1.375,-0.375 0.67187,-0.375 1.23437,-1.09375 v 1.8125 q -1.1875,1.28125 -2.76562,1.28125 z m 2.64062,-3.57813 h -1.90625 v -1.34375 h 3.42188 v 4.85938 h -1.51563 z m 7.0691,-1.92187 q -0.8125,0 -1.45313,0.3125 -0.64062,0.3125 -0.92187,0.90625 v 4.21875 h -1.78125 v -6.98438 h 1.64062 v 1.5 q 0.375,-0.71875 0.9375,-1.125 0.57813,-0.42187 1.21875,-0.46875 0.15625,0 0.23438,0 0.0781,0 0.125,0.0156 z m 0.47735,3.375 q 0,-0.6875 0.375,-1.1875 0.39063,-0.51563 1.0625,-0.79688 0.6875,-0.28125 1.5625,-0.28125 0.4375,0 0.89063,0.0625 0.45312,0.0625 0.79687,0.21875 v -0.375 q 0,-0.67187 -0.40625,-1.03125 -0.39062,-0.35937 -1.15625,-0.35937 -0.57812,0 -1.09375,0.20312 -0.51562,0.20313 -1.09375,0.57813 l -0.57812,-1.17188 q 0.70312,-0.45312 1.42187,-0.67187 0.73438,-0.23438 1.53125,-0.23438 1.48438,0 2.3125,0.75 0.84375,0.75 0.84375,2.14063 v 2.21875 q 0,0.28125 0.0937,0.40625 0.10938,0.10937 0.32813,0.14062 v 1.45313 q -0.23438,0.0469 -0.4375,0.0625 -0.1875,0.0312 -0.3125,0.0312 -0.53125,0 -0.8125,-0.23438 -0.26563,-0.25 -0.34375,-0.59375 l -0.0312,-0.35937 q -0.45313,0.59375 -1.14063,0.92187 -0.67187,0.3125 -1.375,0.3125 -0.70312,0 -1.26562,-0.28125 -0.54688,-0.29687 -0.85938,-0.79687 -0.3125,-0.5 -0.3125,-1.125 z m 4.34375,0.35937 q 0.15625,-0.15625 0.25,-0.3125 0.0937,-0.17187 0.0937,-0.29687 v -0.71875 q -0.32812,-0.125 -0.70312,-0.20313 -0.375,-0.0781 -0.70313,-0.0781 -0.6875,0 -1.14062,0.3125 -0.4375,0.29687 -0.4375,0.78125 0,0.26562 0.14062,0.51562 0.14063,0.23438 0.42188,0.39063 0.28125,0.14062 0.67187,0.14062 0.40625,0 0.78125,-0.15625 0.39063,-0.15625 0.625,-0.375 z m 7.9784,1.84375 q -0.8125,0 -1.4375,-0.35937 -0.60938,-0.375 -0.96875,-1 v 4.0625 h -1.78125 v -9.82813 h 1.5625 v 1.20313 q 0.39062,-0.60938 1,-0.96875 0.625,-0.35938 1.40625,-0.35938 0.70312,0 1.29687,0.28125 0.59375,0.28125 1.03125,0.78125 0.45313,0.5 0.6875,1.15625 0.25,0.64063 0.25,1.39063 0,1 -0.39062,1.82812 -0.39063,0.82813 -1.07813,1.32813 -0.6875,0.48437 -1.57812,0.48437 z m -0.60938,-1.53125 q 0.42188,0 0.75,-0.17187 0.34375,-0.17188 0.57813,-0.46875 0.25,-0.29688 0.375,-0.67188 0.125,-0.39062 0.125,-0.79687 0,-0.4375 -0.14063,-0.8125 -0.14062,-0.375 -0.40625,-0.65625 -0.26562,-0.29688 -0.625,-0.45313 -0.34375,-0.15625 -0.75,-0.15625 -0.26562,0 -0.53125,0.0937 -0.25,0.0781 -0.5,0.23438 -0.23437,0.15625 -0.42187,0.375 -0.17188,0.20312 -0.25,0.46875 v 1.64062 q 0.17187,0.375 0.4375,0.70313 0.28125,0.3125 0.64062,0.5 0.35938,0.17187 0.71875,0.17187 z m 11.35626,1.39063 h -1.78125 v -3.92188 q 0,-0.8125 -0.3125,-1.20312 -0.3125,-0.40625 -0.85937,-0.40625 -0.3125,0 -0.67188,0.1875 -0.35937,0.1875 -0.65625,0.51562 -0.28125,0.32813 -0.42187,0.75 v 4.07813 h -1.78125 v -9.73438 h 1.78125 v 4.04688 q 0.39062,-0.67188 1.04687,-1.04688 0.67188,-0.375 1.46875,-0.375 0.67188,0 1.09375,0.23438 0.4375,0.23437 0.67188,0.64062 0.25,0.39063 0.32812,0.875 0.0937,0.48438 0.0937,1 z m 4.14392,0.14062 q -0.89062,0 -1.71875,-0.29687 -0.8125,-0.29688 -1.39062,-0.875 l 0.64062,-1.15625 q 0.625,0.51562 1.23438,0.75 0.60937,0.23437 1.15625,0.23437 0.53125,0 0.84375,-0.1875 0.3125,-0.1875 0.3125,-0.5625 0,-0.25 -0.17188,-0.39062 -0.17187,-0.14063 -0.5,-0.23438 -0.32812,-0.10937 -0.79687,-0.25 -0.78125,-0.25 -1.29688,-0.48437 -0.51562,-0.25 -0.78125,-0.60938 -0.25,-0.375 -0.25,-0.9375 0,-0.70312 0.34375,-1.20312 0.35938,-0.5 0.98438,-0.78125 0.64062,-0.28125 1.48437,-0.28125 0.75,0 1.42188,0.23437 0.67187,0.23438 1.21875,0.76563 l -0.73438,1.125 q -0.53125,-0.40625 -1.01562,-0.59375 -0.46875,-0.20313 -0.96875,-0.20313 -0.28125,0 -0.53125,0.0625 -0.23438,0.0625 -0.39063,0.21875 -0.15625,0.15625 -0.15625,0.4375 0,0.25 0.14063,0.39063 0.14062,0.14062 0.42187,0.25 0.29688,0.10937 0.70313,0.23437 0.84375,0.25 1.42187,0.5 0.57813,0.25 0.875,0.625 0.29688,0.35938 0.29688,1 0,1.03125 -0.76563,1.625 -0.75,0.59375 -2.03125,0.59375 z m 6.84534,-4.76562 q 0,-1.34375 0.5625,-2.6875 0.57813,-1.35938 1.42188,-2.78125 l 1.35937,0.57812 q -0.20312,0.3125 -0.48437,0.85938 -0.28125,0.54687 -0.5625,1.23437 -0.26563,0.6875 -0.45313,1.42188 -0.17187,0.73437 -0.17187,1.42187 0,1.0625 0.45312,2.23438 0.45313,1.15625 1.1875,2.39062 l -1.3125,0.65625 q -0.54687,-0.84375 -1.01562,-1.71875 -0.45313,-0.875 -0.71875,-1.79687 -0.26563,-0.92188 -0.26563,-1.8125 z m 4.6629,4.625 v -9.46875 h 4.01563 q 0.65625,0 1.20312,0.26562 0.54688,0.26563 0.95313,0.71875 0.40625,0.45313 0.625,1.01563 0.23437,0.5625 0.23437,1.15625 0,0.79687 -0.375,1.51562 -0.375,0.71875 -1.03125,1.17188 -0.65625,0.45312 -1.54687,0.45312 h -2.23438 v 3.17188 z m 1.84375,-4.78125 h 2.125 q 0.34375,0 0.60938,-0.1875 0.26562,-0.1875 0.42187,-0.53125 0.15625,-0.35938 0.15625,-0.8125 0,-0.5 -0.1875,-0.84375 -0.17187,-0.34375 -0.45312,-0.51563 -0.28125,-0.17187 -0.625,-0.17187 h -2.04688 z m 6.45508,6.14062 q 0.25,0.0469 0.45313,0.0937 0.20312,0.0469 0.35937,0.0469 0.25,0 0.40625,-0.14063 0.17188,-0.125 0.32813,-0.45312 0.17187,-0.3125 0.34375,-0.90625 l -2.76563,-6.98438 h 1.85938 l 1.875,5.15625 1.65625,-5.15625 h 1.70312 l -2.9375,8.375 q -0.15625,0.46875 -0.48437,0.84375 -0.32813,0.375 -0.8125,0.59375 -0.48438,0.21875 -1.07813,0.21875 -0.21875,0 -0.4375,-0.0312 -0.20312,-0.0312 -0.46875,-0.10937 z m 11.2992,-1.29687 q -0.92188,0 -1.75,-0.375 -0.8125,-0.375 -1.4375,-1.03125 -0.60938,-0.65625 -0.96875,-1.53125 -0.34375,-0.89063 -0.34375,-1.90625 0,-0.96875 0.34375,-1.82813 0.35937,-0.875 0.98437,-1.51562 0.625,-0.65625 1.45313,-1.03125 0.84375,-0.375 1.82812,-0.375 1.34375,0 2.29688,0.57812 0.95312,0.5625 1.42187,1.48438 l -1.35937,1.01562 q -0.35938,-0.70312 -1.01563,-1.07812 -0.64062,-0.375 -1.40625,-0.375 -0.59375,0 -1.09375,0.26562 -0.48437,0.25 -0.84375,0.6875 -0.35937,0.4375 -0.5625,1.01563 -0.1875,0.5625 -0.1875,1.20312 0,0.6875 0.20313,1.26563 0.20312,0.5625 0.57812,1 0.39063,0.42187 0.89063,0.67187 0.51562,0.23438 1.125,0.23438 0.71875,0 1.375,-0.375 0.67187,-0.375 1.23437,-1.09375 v 1.8125 q -1.1875,1.28125 -2.76562,1.28125 z m 2.64062,-3.57813 h -1.90625 v -1.34375 h 3.42188 v 4.85938 h -1.51563 z m 3.06909,5.04688 0.35938,-1.57813 h -0.5625 v -1.875 h 1.54687 v 1.875 l -0.54687,1.57813 z"
     fill-rule="nonzero"
     id="path1091" />
  <path
     fill="#000000"
     d="m 540.43631,227.93951 v -9.46875 h 3.4375 q 1.54688,0 2.57813,0.64062 1.04687,0.625 1.5625,1.70313 0.53125,1.07812 0.53125,2.375 0,1.4375 -0.57813,2.51562 -0.57812,1.0625 -1.625,1.65625 -1.04687,0.57813 -2.46875,0.57813 z m 6.25,-4.75 q 0,-0.92188 -0.32812,-1.60938 -0.32813,-0.70312 -0.96875,-1.09375 -0.625,-0.39062 -1.51563,-0.39062 h -1.59375 v 6.23437 h 1.59375 q 0.90625,0 1.53125,-0.40625 0.625,-0.40625 0.95313,-1.125 0.32812,-0.71875 0.32812,-1.60937 z m 7.23041,4.8125 q -0.92188,0 -1.75,-0.375 -0.8125,-0.375 -1.4375,-1.03125 -0.60938,-0.65625 -0.96875,-1.53125 -0.34375,-0.89063 -0.34375,-1.90625 0,-0.96875 0.34375,-1.82813 0.35937,-0.875 0.98437,-1.51562 0.625,-0.65625 1.45313,-1.03125 0.84375,-0.375 1.82812,-0.375 1.34375,0 2.29688,0.57812 0.95312,0.5625 1.42187,1.48438 l -1.35937,1.01562 q -0.35938,-0.70312 -1.01563,-1.07812 -0.64062,-0.375 -1.40625,-0.375 -0.59375,0 -1.09375,0.26562 -0.48437,0.25 -0.84375,0.6875 -0.35937,0.4375 -0.5625,1.01563 -0.1875,0.5625 -0.1875,1.20312 0,0.6875 0.20313,1.26563 0.20312,0.5625 0.57812,1 0.39063,0.42187 0.89063,0.67187 0.51562,0.23438 1.125,0.23438 0.71875,0 1.375,-0.375 0.67187,-0.375 1.23437,-1.09375 v 1.8125 q -1.1875,1.28125 -2.76562,1.28125 z m 2.64062,-3.57813 h -1.90625 v -1.34375 h 3.42188 v 4.85938 h -1.51563 z m 3.08472,3.51563 v -9.46875 h 1.84375 v 7.85937 h 4.82812 v 1.60938 z m 10.52441,-4.625 q 0,0.89062 -0.28125,1.8125 -0.26562,0.92187 -0.71875,1.79687 -0.45312,0.875 -1,1.71875 l -1.3125,-0.65625 q 0.73438,-1.23437 1.1875,-2.39062 0.45313,-1.17188 0.45313,-2.23438 0,-0.6875 -0.1875,-1.42187 -0.17188,-0.73438 -0.45313,-1.42188 -0.26562,-0.6875 -0.54687,-1.23437 -0.28125,-0.54688 -0.5,-0.85938 l 1.375,-0.57812 q 0.82812,1.42187 1.40625,2.78125 0.57812,1.34375 0.57812,2.6875 z m 1.41529,6.15625 0.35937,-1.57813 h -0.5625 v -1.875 h 1.54688 v 1.875 l -0.54688,1.57813 z m 6.8219,-11 2.5625,7.28125 2.53125,-7.28125 h 1.9375 l -3.59375,9.46875 h -1.76563 l -3.59375,-9.46875 z m 10.18121,9.60937 q -0.84375,0 -1.53125,-0.28125 -0.67188,-0.29687 -1.15625,-0.79687 -0.46875,-0.51563 -0.71875,-1.17188 -0.25,-0.65625 -0.25,-1.375 0,-0.73437 0.25,-1.375 0.25,-0.65625 0.71875,-1.15625 0.48437,-0.51562 1.15625,-0.79687 0.6875,-0.29688 1.53125,-0.29688 0.85937,0 1.53125,0.29688 0.67187,0.28125 1.15625,0.79687 0.48437,0.5 0.71875,1.15625 0.25,0.64063 0.25,1.375 0,0.71875 -0.25,1.375 -0.23438,0.65625 -0.71875,1.17188 -0.46875,0.5 -1.15625,0.79687 -0.67188,0.28125 -1.53125,0.28125 z m -1.8125,-3.625 q 0,0.625 0.23437,1.09375 0.23438,0.46875 0.64063,0.73438 0.42187,0.26562 0.9375,0.26562 0.51562,0 0.92187,-0.26562 0.42188,-0.28125 0.65625,-0.75 0.25,-0.46875 0.25,-1.07813 0,-0.60937 -0.25,-1.07812 -0.23437,-0.48438 -0.65625,-0.75 -0.40625,-0.26563 -0.92187,-0.26563 -0.51563,0 -0.9375,0.28125 -0.40625,0.26563 -0.64063,0.73438 -0.23437,0.46875 -0.23437,1.07812 z m 7.49121,-3.5 1.46875,2.1875 0.10938,0.23438 0.14062,-0.23438 1.45313,-2.1875 h 1.875 l -2.42188,3.48438 2.45313,3.5 h -1.875 l -1.5,-2.17188 -0.125,-0.23437 -0.10938,0.23437 -1.48437,2.17188 h -1.89063 l 2.46875,-3.46875 -2.42187,-3.51563 z m 8.85095,7.125 q -0.82812,0 -1.51562,-0.28125 -0.67188,-0.29687 -1.15625,-0.79687 -0.48438,-0.5 -0.75,-1.14063 -0.25,-0.65625 -0.25,-1.375 0,-1 0.4375,-1.82812 0.45312,-0.82813 1.28125,-1.32813 0.84375,-0.5 1.96875,-0.5 1.15625,0 1.96875,0.5 0.8125,0.5 1.23437,1.32813 0.4375,0.8125 0.4375,1.76562 0,0.15625 -0.0156,0.32813 -0.0156,0.15625 -0.0312,0.26562 h -5.39063 q 0.0469,0.53125 0.3125,0.9375 0.26563,0.39063 0.67188,0.60938 0.40625,0.20312 0.875,0.20312 0.53125,0 1,-0.25 0.46875,-0.26562 0.64062,-0.70312 l 1.53125,0.4375 q -0.25,0.53125 -0.71875,0.95312 -0.46875,0.40625 -1.10937,0.64063 -0.64063,0.23437 -1.42188,0.23437 z m -1.82812,-4.1875 h 3.65625 q -0.0469,-0.53125 -0.29688,-0.92187 -0.25,-0.40625 -0.65625,-0.625 -0.39062,-0.21875 -0.89062,-0.21875 -0.46875,0 -0.875,0.21875 -0.39063,0.21875 -0.64063,0.625 -0.23437,0.39062 -0.29687,0.92187 z m 6.56164,-5.6875 h 1.78125 v 7.5 q 0,0.46875 0.15625,0.64063 0.17188,0.17187 0.45313,0.17187 0.21875,0 0.4375,-0.0469 0.23437,-0.0625 0.40625,-0.14063 l 0.23437,1.35938 q -0.35937,0.17187 -0.84375,0.26562 -0.46875,0.0937 -0.85937,0.0937 -0.84375,0 -1.3125,-0.4375 -0.45313,-0.45312 -0.45313,-1.28125 z m 6.81873,9.875 q -0.89063,0 -1.71875,-0.29687 -0.8125,-0.29688 -1.39063,-0.875 l 0.64063,-1.15625 q 0.625,0.51562 1.23437,0.75 0.60938,0.23437 1.15625,0.23437 0.53125,0 0.84375,-0.1875 0.3125,-0.1875 0.3125,-0.5625 0,-0.25 -0.17187,-0.39062 -0.17188,-0.14063 -0.5,-0.23438 -0.32813,-0.10937 -0.79688,-0.25 -0.78125,-0.25 -1.29687,-0.48437 -0.51563,-0.25 -0.78125,-0.60938 -0.25,-0.375 -0.25,-0.9375 0,-0.70312 0.34375,-1.20312 0.35937,-0.5 0.98437,-0.78125 0.64063,-0.28125 1.48438,-0.28125 0.75,0 1.42187,0.23437 0.67188,0.23438 1.21875,0.76563 l -0.73437,1.125 q -0.53125,-0.40625 -1.01563,-0.59375 -0.46875,-0.20313 -0.96875,-0.20313 -0.28125,0 -0.53125,0.0625 -0.23437,0.0625 -0.39062,0.21875 -0.15625,0.15625 -0.15625,0.4375 0,0.25 0.14062,0.39063 0.14063,0.14062 0.42188,0.25 0.29687,0.10937 0.70312,0.23437 0.84375,0.25 1.42188,0.5 0.57812,0.25 0.875,0.625 0.29687,0.35938 0.29687,1 0,1.03125 -0.76562,1.625 -0.75,0.59375 -2.03125,0.59375 z m 3.9591,-0.14062 v -1.92188 h 1.46875 v 1.92188 z m 2.51563,0 v -1.92188 h 1.46875 v 1.92188 z m 2.5,0 v -1.92188 h 1.46875 v 1.92188 z"
     fill-rule="nonzero"
     id="path1093" />
  <path
     fill="#ffffff"
     d="m 365.15268,125.6363 23.24625,-17.2412 1.5512,2.0945 1.08445,-7.29425 -7.28919,-1.08371 1.55118,2.0945 -23.24625,17.24118 z"
     fill-rule="evenodd"
     id="path1095" />
  <path
     stroke="#595959"
     stroke-width="1"
     stroke-linejoin="round"
     stroke-linecap="butt"
     d="m 365.15268,125.6363 23.24625,-17.2412 1.5512,2.0945 1.08445,-7.29425 -7.28919,-1.08371 1.55118,2.0945 -23.24625,17.24118 z"
     fill-rule="evenodd"
     id="path1097" />
  <path
     fill="#f3f3f3"
     fill-opacity="0.6604"
     d="m 385.87945,76.94371 v 0 c 0,19.49087 22.16721,35.29135 49.51181,35.29135 v 0 c 27.34463,0 49.51184,-15.80048 49.51184,-35.29135 v 0 c 0,-19.49086 -22.16721,-35.29134 -49.51184,-35.29134 v 0 c -27.3446,0 -49.51181,15.80048 -49.51181,35.29134 z"
     fill-rule="evenodd"
     id="path1099" />
  <path
     stroke="#595959"
     stroke-width="1"
     stroke-linejoin="round"
     stroke-linecap="butt"
     d="m 385.87945,76.94371 v 0 c 0,19.49087 22.16721,35.29135 49.51181,35.29135 v 0 c 27.34463,0 49.51184,-15.80048 49.51184,-35.29135 v 0 c 0,-19.49086 -22.16721,-35.29134 -49.51184,-35.29134 v 0 c -27.3446,0 -49.51181,15.80048 -49.51181,35.29134 z"
     fill-rule="evenodd"
     id="path1101" />
  <path
     fill="#000000"
     fill-opacity="0"
     d="m 480.55661,58.36302 h -90.33069 v 37.16536 h 90.33069 z"
     fill-rule="evenodd"
     id="path1103" />
  <path
     fill="#000000"
     d="m 407.00247,71.03677 h 2.0625 l 3.82813,10.40625 h -2.09375 l -0.96875,-2.59375 h -3.625 l -0.95313,2.59375 h -2.07812 z m 2.46875,6.39062 -1.4375,-4.29687 -1.5,4.29687 z m 11.50528,4.01563 h -1.96875 v -4.3125 q 0,-0.92188 -0.32812,-1.34375 -0.3125,-0.42188 -0.89063,-0.42188 -0.39062,0 -0.79687,0.20313 -0.39063,0.20312 -0.71875,0.5625 -0.32813,0.35937 -0.46875,0.82812 v 4.48438 h -1.96875 v -7.6875 h 1.78125 v 1.42187 q 0.28125,-0.48437 0.73437,-0.82812 0.46875,-0.35938 1.0625,-0.53125 0.59375,-0.1875 1.25,-0.1875 0.71875,0 1.17188,0.26562 0.46875,0.25 0.70312,0.6875 0.25,0.42188 0.34375,0.96875 0.0937,0.54688 0.0937,1.09375 z m 8.85242,0 h -1.96875 v -4.3125 q 0,-0.92188 -0.32813,-1.34375 -0.3125,-0.42188 -0.89062,-0.42188 -0.39063,0 -0.79688,0.20313 -0.39062,0.20312 -0.71875,0.5625 -0.32812,0.35937 -0.46875,0.82812 v 4.48438 h -1.96875 v -7.6875 h 1.78125 v 1.42187 q 0.28125,-0.48437 0.73438,-0.82812 0.46875,-0.35938 1.0625,-0.53125 0.59375,-0.1875 1.25,-0.1875 0.71875,0 1.17187,0.26562 0.46875,0.25 0.70313,0.6875 0.25,0.42188 0.34375,0.96875 0.0937,0.54688 0.0937,1.09375 z m 5.25863,0.14062 q -0.9375,0 -1.6875,-0.3125 -0.73437,-0.3125 -1.26562,-0.85937 -0.51563,-0.5625 -0.79688,-1.28125 -0.28125,-0.71875 -0.28125,-1.51563 0,-0.79687 0.28125,-1.51562 0.28125,-0.71875 0.79688,-1.28125 0.53125,-0.5625 1.26562,-0.875 0.75,-0.3125 1.6875,-0.3125 0.9375,0 1.67188,0.3125 0.75,0.3125 1.28125,0.875 0.53125,0.5625 0.79687,1.28125 0.26563,0.71875 0.26563,1.51562 0,0.79688 -0.26563,1.51563 -0.26562,0.71875 -0.79687,1.28125 -0.51563,0.54687 -1.26563,0.85937 -0.75,0.3125 -1.6875,0.3125 z m -2,-3.96875 q 0,0.67188 0.25,1.20313 0.26563,0.51562 0.71875,0.8125 0.46875,0.28125 1.03125,0.28125 0.5625,0 1.01563,-0.29688 0.45312,-0.29687 0.71875,-0.8125 0.28125,-0.53125 0.28125,-1.20312 0,-0.65625 -0.28125,-1.1875 -0.26563,-0.53125 -0.71875,-0.8125 -0.45313,-0.29688 -1.01563,-0.29688 -0.5625,0 -1.03125,0.29688 -0.45312,0.29687 -0.71875,0.82812 -0.25,0.51563 -0.25,1.1875 z m 11.82688,3.4375 q -0.25,0.0937 -0.60938,0.23438 -0.34375,0.125 -0.75,0.20312 -0.40625,0.0781 -0.8125,0.0781 -0.54687,0 -1,-0.1875 -0.45312,-0.1875 -0.73437,-0.59375 -0.26563,-0.42188 -0.26563,-1.10938 v -4.40625 h -1 v -1.51562 h 1 v -2.48438 h 1.96875 v 2.48438 h 1.60938 v 1.51562 h -1.60938 v 3.75 q 0.0156,0.40625 0.21875,0.57813 0.20313,0.17187 0.51563,0.17187 0.3125,0 0.59375,-0.0937 0.29687,-0.10937 0.46875,-0.1875 z m 0.48739,-1.875 q 0,-0.75 0.42188,-1.3125 0.42187,-0.5625 1.17187,-0.875 0.75,-0.3125 1.71875,-0.3125 0.46875,0 0.96875,0.0781 0.5,0.0781 0.875,0.23437 v -0.40625 q 0,-0.73437 -0.4375,-1.125 -0.4375,-0.40625 -1.28125,-0.40625 -0.625,0 -1.20312,0.21875 -0.57813,0.21875 -1.20313,0.64063 l -0.625,-1.28125 q 0.76563,-0.5 1.5625,-0.75 0.79688,-0.25 1.67188,-0.25 1.64062,0 2.54687,0.82812 0.92188,0.8125 0.92188,2.34375 v 2.4375 q 0,0.3125 0.10937,0.45313 0.10938,0.125 0.35938,0.15625 v 1.59375 q -0.25,0.0469 -0.46875,0.0781 -0.21875,0.0312 -0.35938,0.0312 -0.59375,0 -0.89062,-0.26562 -0.29688,-0.26563 -0.375,-0.65625 l -0.0469,-0.39063 q -0.48437,0.64063 -1.23437,1 -0.75,0.34375 -1.53125,0.34375 -0.76563,0 -1.375,-0.3125 -0.59375,-0.3125 -0.95313,-0.85937 -0.34375,-0.54688 -0.34375,-1.23438 z m 4.78125,0.39063 q 0.17188,-0.17188 0.26563,-0.34375 0.10937,-0.1875 0.10937,-0.32813 v -0.78125 q -0.35937,-0.14062 -0.76562,-0.21875 -0.40625,-0.0937 -0.78125,-0.0937 -0.76563,0 -1.25,0.34375 -0.48438,0.32813 -0.48438,0.85938 0,0.29687 0.15625,0.5625 0.15625,0.26562 0.46875,0.42187 0.3125,0.15625 0.73438,0.15625 0.4375,0 0.85937,-0.15625 0.42188,-0.17187 0.6875,-0.42187 z m 8.69876,1.48437 q -0.25,0.0937 -0.60937,0.23438 -0.34375,0.125 -0.75,0.20312 -0.40625,0.0781 -0.8125,0.0781 -0.54688,0 -1,-0.1875 -0.45313,-0.1875 -0.73438,-0.59375 -0.26562,-0.42188 -0.26562,-1.10938 v -4.40625 h -1 v -1.51562 h 1 v -2.48438 h 1.96875 v 2.48438 h 1.60937 v 1.51562 h -1.60937 v 3.75 q 0.0156,0.40625 0.21875,0.57813 0.20312,0.17187 0.51562,0.17187 0.3125,0 0.59375,-0.0937 0.29688,-0.10937 0.46875,-0.1875 z m 4.47849,0.53125 q -0.92188,0 -1.67188,-0.3125 -0.75,-0.3125 -1.28125,-0.85937 -0.51562,-0.54688 -0.8125,-1.25 -0.28125,-0.71875 -0.28125,-1.51563 0,-1.09375 0.48438,-2 0.5,-0.92187 1.40625,-1.46875 0.92187,-0.54687 2.17187,-0.54687 1.26563,0 2.15625,0.54687 0.89063,0.54688 1.35938,1.45313 0.48437,0.90625 0.48437,1.9375 0,0.1875 -0.0156,0.375 -0.0156,0.17187 -0.0312,0.29687 h -5.9375 q 0.0625,0.57813 0.34375,1.01563 0.29687,0.4375 0.73437,0.67187 0.45313,0.21875 0.96875,0.21875 0.57813,0 1.09375,-0.28125 0.53125,-0.28125 0.71875,-0.75 l 1.6875,0.46875 q -0.28125,0.57813 -0.79687,1.04688 -0.51563,0.45312 -1.21875,0.70312 -0.70313,0.25 -1.5625,0.25 z m -2,-4.59375 h 4.01562 q -0.0625,-0.59375 -0.34375,-1.01562 -0.26562,-0.4375 -0.70312,-0.67188 -0.4375,-0.25 -0.98438,-0.25 -0.53125,0 -0.96875,0.25 -0.42187,0.23438 -0.70312,0.67188 -0.26563,0.42187 -0.3125,1.01562 z"
     fill-rule="nonzero"
     id="path1105" />
  <path
     fill="#ffffff"
     d="m 496.14694,79.56692 20.55115,-0.0251 v 2.60631 l 5.21264,-5.21898 -5.21264,-5.20622 v 2.60629 l -20.55115,0.0251 z"
     fill-rule="evenodd"
     id="path1107" />
  <path
     stroke="#595959"
     stroke-width="1"
     stroke-linejoin="round"
     stroke-linecap="butt"
     d="m 496.14694,79.56692 20.55115,-0.0251 v 2.60631 l 5.21264,-5.21898 -5.21264,-5.20622 v 2.60629 l -20.55115,0.0251 z"
     fill-rule="evenodd"
     id="path1109" />
  <path
     fill="#f3f3f3"
     fill-opacity="0.6604"
     d="m 533.15506,76.94371 v 0 c 0,19.49087 22.16718,35.29135 49.51178,35.29135 v 0 c 27.34467,0 49.51184,-15.80048 49.51184,-35.29135 v 0 c 0,-19.49086 -22.16717,-35.29134 -49.51184,-35.29134 v 0 c -27.3446,0 -49.51178,15.80048 -49.51178,35.29134 z"
     fill-rule="evenodd"
     id="path1111" />
  <path
     stroke="#595959"
     stroke-width="1"
     stroke-linejoin="round"
     stroke-linecap="butt"
     d="m 533.15506,76.94371 v 0 c 0,19.49087 22.16718,35.29135 49.51178,35.29135 v 0 c 27.34467,0 49.51184,-15.80048 49.51184,-35.29135 v 0 c 0,-19.49086 -22.16717,-35.29134 -49.51184,-35.29134 v 0 c -27.3446,0 -49.51178,15.80048 -49.51178,35.29134 z"
     fill-rule="evenodd"
     id="path1113" />
  <path
     fill="#000000"
     fill-opacity="0"
     d="M 636.21097,49.47809 H 529.12436 v 51.71654 h 107.08661 z"
     fill-rule="evenodd"
     id="path1115" />
  <path
     fill="#000000"
     d="m 565.45926,71.27809 v -9.46875 h 4.1875 q 0.65625,0 1.20312,0.26563 0.5625,0.26562 0.96875,0.71875 0.40625,0.45312 0.625,1.01562 0.21875,0.5625 0.21875,1.15625 0,0.59375 -0.21875,1.15625 -0.20312,0.54688 -0.59375,0.96875 -0.375,0.40625 -0.89062,0.625 l 2.15625,3.5625 h -2.03125 l -1.9375,-3.17187 h -1.84375 v 3.17187 z m 1.84375,-4.78125 h 2.29687 q 0.35938,0 0.625,-0.20312 0.26563,-0.21875 0.42188,-0.5625 0.15625,-0.34375 0.15625,-0.76563 0,-0.45312 -0.1875,-0.79687 -0.1875,-0.34375 -0.46875,-0.53125 -0.28125,-0.20313 -0.625,-0.20313 h -2.21875 z m 8.86316,-1.29687 v 6.07812 h -1.84375 v -9.46875 h 1.46875 l 4.89062,6.25 v -6.23437 h 1.84375 v 9.45312 h -1.53125 z m 10.90375,-3.39063 h 1.85937 l 3.48438,9.46875 h -1.89063 l -0.89062,-2.35937 h -3.29688 l -0.875,2.35937 h -1.89062 z m 2.23437,5.8125 -1.3125,-3.90625 -1.35937,3.90625 z m 10.92938,-1.79687 v 1.4375 h -1.375 v 1.51562 h -1.60937 v -1.51562 h -1.375 v -1.4375 h 1.375 v -1.5 h 1.60937 v 1.5 z"
     fill-rule="nonzero"
     id="path1117" />
  <path
     fill="#000000"
     d="m 557.20596,87.27809 v -5.25 h -0.92188 v -1.35937 h 0.92188 v -0.42188 q 0,-0.875 0.28125,-1.5 0.29687,-0.64062 0.8125,-0.98437 0.53125,-0.34375 1.25,-0.34375 0.42187,0 0.84375,0.10937 0.4375,0.0937 0.875,0.29688 l -0.35938,1.34375 q -0.20312,-0.0937 -0.46875,-0.17188 -0.26562,-0.0781 -0.51562,-0.0781 -0.45313,0 -0.6875,0.32812 -0.23438,0.3125 -0.23438,0.92188 v 0.5 h 1.70313 v 1.35937 h -1.70313 v 5.25 z m 7.65051,0.14063 q -0.82812,0 -1.51562,-0.28125 -0.67188,-0.29688 -1.15625,-0.79688 -0.48438,-0.5 -0.75,-1.14062 -0.25,-0.65625 -0.25,-1.375 0,-1 0.4375,-1.82813 0.45312,-0.82812 1.28125,-1.32812 0.84375,-0.5 1.96875,-0.5 1.15625,0 1.96875,0.5 0.8125,0.5 1.23437,1.32812 0.4375,0.8125 0.4375,1.76563 0,0.15625 -0.0156,0.32812 -0.0156,0.15625 -0.0312,0.26563 h -5.39063 q 0.0469,0.53125 0.3125,0.9375 0.26563,0.39062 0.67188,0.60937 0.40625,0.20313 0.875,0.20313 0.53125,0 1,-0.25 0.46875,-0.26563 0.64062,-0.70313 l 1.53125,0.4375 q -0.25,0.53125 -0.71875,0.95313 -0.46875,0.40625 -1.10937,0.64062 -0.64063,0.23438 -1.42188,0.23438 z m -1.82812,-4.1875 h 3.65625 q -0.0469,-0.53125 -0.29688,-0.92188 -0.25,-0.40625 -0.65625,-0.625 -0.39062,-0.21875 -0.89062,-0.21875 -0.46875,0 -0.875,0.21875 -0.39063,0.21875 -0.64063,0.625 -0.23437,0.39063 -0.29687,0.92188 z m 6.09289,1.98437 q 0,-0.6875 0.375,-1.1875 0.39063,-0.51562 1.0625,-0.79687 0.6875,-0.28125 1.5625,-0.28125 0.4375,0 0.89063,0.0625 0.45312,0.0625 0.79687,0.21875 v -0.375 q 0,-0.67188 -0.40625,-1.03125 -0.39062,-0.35938 -1.15625,-0.35938 -0.57812,0 -1.09375,0.20313 -0.51562,0.20312 -1.09375,0.57812 l -0.57812,-1.17187 q 0.70312,-0.45313 1.42187,-0.67188 0.73438,-0.23437 1.53125,-0.23437 1.48438,0 2.3125,0.75 0.84375,0.75 0.84375,2.14062 v 2.21875 q 0,0.28125 0.0937,0.40625 0.10938,0.10938 0.32813,0.14063 v 1.45312 q -0.23438,0.0469 -0.4375,0.0625 -0.1875,0.0312 -0.3125,0.0312 -0.53125,0 -0.8125,-0.23437 -0.26563,-0.25 -0.34375,-0.59375 l -0.0312,-0.35938 q -0.45313,0.59375 -1.14063,0.92188 -0.67187,0.3125 -1.375,0.3125 -0.70312,0 -1.26562,-0.28125 -0.54688,-0.29688 -0.85938,-0.79688 -0.3125,-0.5 -0.3125,-1.125 z m 4.34375,0.35938 q 0.15625,-0.15625 0.25,-0.3125 0.0937,-0.17188 0.0937,-0.29688 v -0.71875 q -0.32812,-0.125 -0.70312,-0.20312 -0.375,-0.0781 -0.70313,-0.0781 -0.6875,0 -1.14062,0.3125 -0.4375,0.29688 -0.4375,0.78125 0,0.26563 0.14062,0.51563 0.14063,0.23437 0.42188,0.39062 0.28125,0.14063 0.67187,0.14063 0.40625,0 0.78125,-0.15625 0.39063,-0.15625 0.625,-0.375 z m 7.91181,1.34375 q -0.23438,0.0937 -0.5625,0.21875 -0.3125,0.10937 -0.67188,0.1875 -0.35937,0.0781 -0.73437,0.0781 -0.5,0 -0.92188,-0.17187 -0.40625,-0.1875 -0.65625,-0.5625 -0.23437,-0.375 -0.23437,-0.98438 V 81.6687 h -0.92188 v -1.375 h 0.92188 v -2.26563 h 1.78125 v 2.26563 h 1.46875 v 1.375 h -1.46875 v 3.40625 q 0.0156,0.35937 0.20312,0.53125 0.1875,0.15625 0.46875,0.15625 0.26563,0 0.53125,-0.0937 0.28125,-0.0937 0.4375,-0.15625 z m 0.86798,-2.25 v -4.375 h 1.78125 v 3.98437 q 0,0.79688 0.29687,1.20313 0.29688,0.40625 0.85938,0.40625 0.34375,0 0.6875,-0.14063 0.34375,-0.14062 0.625,-0.40625 0.29687,-0.28125 0.48437,-0.71875 v -4.32812 h 1.79688 v 4.98437 q 0,0.28125 0.0937,0.40625 0.10937,0.10938 0.32812,0.14063 v 1.45312 q -0.26562,0.0469 -0.45312,0.0625 -0.17188,0.0156 -0.3125,0.0156 -0.48438,0 -0.79688,-0.21875 -0.29687,-0.21875 -0.34375,-0.60938 l -0.0469,-0.5625 q -0.45313,0.71875 -1.1875,1.09375 -0.73438,0.35938 -1.60938,0.35938 -1.09375,0 -1.65625,-0.70313 -0.54687,-0.70312 -0.54687,-2.04687 z m 12.4555,-2.82813 q -0.8125,0 -1.45312,0.3125 -0.64063,0.3125 -0.92188,0.90625 v 4.21875 h -1.78125 v -6.98437 h 1.64063 v 1.5 q 0.375,-0.71875 0.9375,-1.125 0.57812,-0.42188 1.21875,-0.46875 0.15625,0 0.23437,0 0.0781,0 0.125,0.0156 z m 4.1427,5.57813 q -0.82812,0 -1.51562,-0.28125 -0.67188,-0.29688 -1.15625,-0.79688 -0.48438,-0.5 -0.75,-1.14062 -0.25,-0.65625 -0.25,-1.375 0,-1 0.4375,-1.82813 0.45312,-0.82812 1.28125,-1.32812 0.84375,-0.5 1.96875,-0.5 1.15625,0 1.96875,0.5 0.8125,0.5 1.23437,1.32812 0.4375,0.8125 0.4375,1.76563 0,0.15625 -0.0156,0.32812 -0.0156,0.15625 -0.0312,0.26563 h -5.39063 q 0.0469,0.53125 0.3125,0.9375 0.26563,0.39062 0.67188,0.60937 0.40625,0.20313 0.875,0.20313 0.53125,0 1,-0.25 0.46875,-0.26563 0.64062,-0.70313 l 1.53125,0.4375 q -0.25,0.53125 -0.71875,0.95313 -0.46875,0.40625 -1.10937,0.64062 -0.64063,0.23438 -1.42188,0.23438 z m -1.82812,-4.1875 h 3.65625 q -0.0469,-0.53125 -0.29688,-0.92188 -0.25,-0.40625 -0.65625,-0.625 -0.39062,-0.21875 -0.89062,-0.21875 -0.46875,0 -0.875,0.21875 -0.39063,0.21875 -0.64063,0.625 -0.23437,0.39063 -0.29687,0.92188 z m 9.15539,4.1875 q -0.89062,0 -1.71875,-0.29688 -0.8125,-0.29687 -1.39062,-0.875 l 0.64062,-1.15625 q 0.625,0.51563 1.23438,0.75 0.60937,0.23438 1.15625,0.23438 0.53125,0 0.84375,-0.1875 0.3125,-0.1875 0.3125,-0.5625 0,-0.25 -0.17188,-0.39063 -0.17187,-0.14062 -0.5,-0.23437 -0.32812,-0.10938 -0.79687,-0.25 -0.78125,-0.25 -1.29688,-0.48438 -0.51562,-0.25 -0.78125,-0.60937 -0.25,-0.375 -0.25,-0.9375 0,-0.70313 0.34375,-1.20313 0.35938,-0.5 0.98438,-0.78125 0.64062,-0.28125 1.48437,-0.28125 0.75,0 1.42188,0.23438 0.67187,0.23437 1.21875,0.76562 l -0.73438,1.125 q -0.53125,-0.40625 -1.01562,-0.59375 -0.46875,-0.20312 -0.96875,-0.20312 -0.28125,0 -0.53125,0.0625 -0.23438,0.0625 -0.39063,0.21875 -0.15625,0.15625 -0.15625,0.4375 0,0.25 0.14063,0.39062 0.14062,0.14063 0.42187,0.25 0.29688,0.10938 0.70313,0.23438 0.84375,0.25 1.42187,0.5 0.57813,0.25 0.875,0.625 0.29688,0.35937 0.29688,1 0,1.03125 -0.76563,1.625 -0.75,0.59375 -2.03125,0.59375 z"
     fill-rule="nonzero"
     id="path1119" />
  <path
     fill="#ffffff"
     d="m 267.52597,168.91263 -23.24625,17.24121 -1.55117,-2.09451 -1.08445,7.29425 7.28919,1.08371 -1.55121,-2.09449 23.24628,-17.24118 z"
     fill-rule="evenodd"
     id="path1121" />
  <path
     stroke="#595959"
     stroke-width="1"
     stroke-linejoin="round"
     stroke-linecap="butt"
     d="m 267.52597,168.91263 -23.24625,17.24121 -1.55117,-2.09451 -1.08445,7.29425 7.28919,1.08371 -1.55121,-2.09449 23.24628,-17.24118 z"
     fill-rule="evenodd"
     id="path1123" />
  <path
     fill="#f3f3f3"
     fill-opacity="0.6604"
     d="m 246.79919,217.60523 v 0 c 0,-19.49088 -22.16717,-35.29132 -49.5118,-35.29132 v 0 c -27.34461,0 -49.5118,15.80045 -49.5118,35.29132 v 0 c 0,19.49088 22.16719,35.29135 49.5118,35.29135 v 0 c 27.34463,0 49.5118,-15.80048 49.5118,-35.29135 z"
     fill-rule="evenodd"
     id="path1125" />
  <path
     stroke="#595959"
     stroke-width="1"
     stroke-linejoin="round"
     stroke-linecap="butt"
     d="m 246.79919,217.60523 v 0 c 0,-19.49088 -22.16717,-35.29132 -49.5118,-35.29132 v 0 c -27.34461,0 -49.5118,15.80045 -49.5118,35.29132 v 0 c 0,19.49088 22.16719,35.29135 49.5118,35.29135 v 0 c 27.34463,0 49.5118,-15.80048 49.5118,-35.29135 z"
     fill-rule="evenodd"
     id="path1127" />
  <path
     fill="#000000"
     fill-opacity="0"
     d="m 242.45276,199.02057 h -90.33072 v 37.16534 h 90.33072 z"
     fill-rule="evenodd"
     id="path1129" />
  <path
     fill="#000000"
     d="M 168.57663,222.10055 V 211.6943 h 4.42187 q 0.71875,0 1.3125,0.29688 0.60938,0.29687 1.04688,0.79687 0.45312,0.48438 0.70312,1.10938 0.25,0.60937 0.25,1.25 0,0.89062 -0.42187,1.6875 -0.40625,0.78125 -1.125,1.28125 -0.71875,0.5 -1.70313,0.5 h -2.45312 v 3.48437 z m 2.03125,-5.26562 h 2.34375 q 0.35937,0 0.65625,-0.20313 0.29687,-0.20312 0.46875,-0.59375 0.17187,-0.39062 0.17187,-0.89062 0,-0.53125 -0.20312,-0.90625 -0.1875,-0.39063 -0.5,-0.57813 -0.3125,-0.1875 -0.6875,-0.1875 h -2.25 z m 6.27821,3 q 0,-0.75 0.42188,-1.3125 0.42187,-0.5625 1.17187,-0.875 0.75,-0.3125 1.71875,-0.3125 0.46875,0 0.96875,0.0781 0.5,0.0781 0.875,0.23438 v -0.40625 q 0,-0.73438 -0.4375,-1.125 -0.4375,-0.40625 -1.28125,-0.40625 -0.625,0 -1.20312,0.21875 -0.57813,0.21875 -1.20313,0.64062 l -0.625,-1.28125 q 0.76563,-0.5 1.5625,-0.75 0.79688,-0.25 1.67188,-0.25 1.64062,0 2.54687,0.82813 0.92188,0.8125 0.92188,2.34375 v 2.4375 q 0,0.3125 0.10937,0.45312 0.10938,0.125 0.35938,0.15625 v 1.59375 q -0.25,0.0469 -0.46875,0.0781 -0.21875,0.0312 -0.35938,0.0312 -0.59375,0 -0.89062,-0.26563 -0.29688,-0.26562 -0.375,-0.65625 l -0.0469,-0.39062 q -0.48437,0.64062 -1.23437,1 -0.75,0.34375 -1.53125,0.34375 -0.76563,0 -1.375,-0.3125 -0.59375,-0.3125 -0.95313,-0.85938 -0.34375,-0.54687 -0.34375,-1.23437 z m 4.78125,0.39062 q 0.17188,-0.17187 0.26563,-0.34375 0.10937,-0.1875 0.10937,-0.32812 v -0.78125 q -0.35937,-0.14063 -0.76562,-0.21875 -0.40625,-0.0937 -0.78125,-0.0937 -0.76563,0 -1.25,0.34375 -0.48438,0.32812 -0.48438,0.85937 0,0.29688 0.15625,0.5625 0.15625,0.26563 0.46875,0.42188 0.3125,0.15625 0.73438,0.15625 0.4375,0 0.85937,-0.15625 0.42188,-0.17188 0.6875,-0.42188 z m 8.74085,-4.10937 q -0.89063,0 -1.59375,0.34375 -0.70313,0.34375 -1.01563,1 v 4.64062 h -1.96875 v -7.6875 h 1.8125 v 1.65625 q 0.40625,-0.79687 1.03125,-1.25 0.64063,-0.45312 1.34375,-0.5 0.15625,0 0.23438,0 0.0937,0 0.15625,0.0156 z m 5.70325,5.59375 q -0.25,0.0937 -0.60938,0.23437 -0.34375,0.125 -0.75,0.20313 -0.40625,0.0781 -0.8125,0.0781 -0.54687,0 -1,-0.1875 -0.45312,-0.1875 -0.73437,-0.59375 -0.26563,-0.42187 -0.26563,-1.10937 v -4.40625 h -1 v -1.51563 h 1 v -2.48437 h 1.96875 v 2.48437 h 1.60938 v 1.51563 h -1.60938 v 3.75 q 0.0156,0.40625 0.21875,0.57812 0.20313,0.17188 0.51563,0.17188 0.3125,0 0.59375,-0.0937 0.29687,-0.10938 0.46875,-0.1875 z m 1.01864,0.39062 v -7.6875 h 1.96875 v 7.6875 z m 0,-8.75 v -1.95312 h 1.96875 v 1.95312 z m 8.34673,8.35938 q -0.25,0.0937 -0.60938,0.23437 -0.34375,0.125 -0.75,0.20313 -0.40625,0.0781 -0.8125,0.0781 -0.54687,0 -1,-0.1875 -0.45312,-0.1875 -0.73437,-0.59375 -0.26563,-0.42187 -0.26563,-1.10937 v -4.40625 h -1 v -1.51563 h 1 v -2.48437 h 1.96875 v 2.48437 h 1.60938 v 1.51563 h -1.60938 v 3.75 q 0.0156,0.40625 0.21875,0.57812 0.20313,0.17188 0.51563,0.17188 0.3125,0 0.59375,-0.0937 0.29687,-0.10938 0.46875,-0.1875 z m 1.01864,0.39062 v -7.6875 h 1.96875 v 7.6875 z m 0,-8.75 v -1.95312 h 1.96875 v 1.95312 z m 7.28423,8.89063 q -0.9375,0 -1.6875,-0.3125 -0.73438,-0.3125 -1.26563,-0.85938 -0.51562,-0.5625 -0.79687,-1.28125 -0.28125,-0.71875 -0.28125,-1.51562 0,-0.79688 0.28125,-1.51563 0.28125,-0.71875 0.79687,-1.28125 0.53125,-0.5625 1.26563,-0.875 0.75,-0.3125 1.6875,-0.3125 0.9375,0 1.67187,0.3125 0.75,0.3125 1.28125,0.875 0.53125,0.5625 0.79688,1.28125 0.26564,0.71875 0.26564,1.51563 0,0.79687 -0.26564,1.51562 -0.26563,0.71875 -0.79688,1.28125 -0.51562,0.54688 -1.26562,0.85938 -0.75,0.3125 -1.6875,0.3125 z m -2,-3.96875 q 0,0.67187 0.25,1.20312 0.26562,0.51563 0.71875,0.8125 0.46875,0.28125 1.03125,0.28125 0.5625,0 1.01562,-0.29687 0.45313,-0.29688 0.71875,-0.8125 0.28125,-0.53125 0.28125,-1.20313 0,-0.65625 -0.28125,-1.1875 -0.26562,-0.53125 -0.71875,-0.8125 -0.45312,-0.29687 -1.01562,-0.29687 -0.5625,0 -1.03125,0.29687 -0.45313,0.29688 -0.71875,0.82813 -0.25,0.51562 -0.25,1.1875 z m 14.47548,3.82812 h -1.96875 v -4.3125 q 0,-0.92187 -0.32813,-1.34375 -0.3125,-0.42187 -0.89062,-0.42187 -0.39063,0 -0.79688,0.20312 -0.39062,0.20313 -0.71875,0.5625 -0.32812,0.35938 -0.46875,0.82813 v 4.48437 h -1.96875 v -7.6875 h 1.78125 v 1.42188 q 0.28125,-0.48438 0.73438,-0.82813 0.46875,-0.35937 1.0625,-0.53125 0.59375,-0.1875 1.25,-0.1875 0.71875,0 1.17187,0.26563 0.46875,0.25 0.70313,0.6875 0.25,0.42187 0.34375,0.96875 0.0937,0.54687 0.0937,1.09375 z"
     fill-rule="nonzero"
     id="path1131" />
  <path
     fill="#ffffff"
     d="m 136.53174,214.98203 -20.55118,0.0251 v -2.6063 l -5.2126,5.21897 5.2126,5.20623 v -2.60629 l 20.55118,-0.0251 z"
     fill-rule="evenodd"
     id="path1133" />
  <path
     stroke="#595959"
     stroke-width="1"
     stroke-linejoin="round"
     stroke-linecap="butt"
     d="m 136.53174,214.98203 -20.55118,0.0251 v -2.6063 l -5.2126,5.21897 5.2126,5.20623 v -2.60629 l 20.55118,-0.0251 z"
     fill-rule="evenodd"
     id="path1135" />
  <path
     fill="#f3f3f3"
     fill-opacity="0.6604"
     d="m 99.52362,217.60523 v 0 c 0,-19.49088 -22.1672,-35.29132 -49.511814,-35.29132 v 0 C 22.66719,182.31391 0.5,198.11436 0.5,217.60523 v 0 c 0,19.49088 22.16719,35.29135 49.511806,35.29135 v 0 c 27.344614,0 49.511814,-15.80048 49.511814,-35.29135 z"
     fill-rule="evenodd"
     id="path1137" />
  <path
     stroke="#595959"
     stroke-width="1"
     stroke-linejoin="round"
     stroke-linecap="butt"
     d="m 99.52362,217.60523 v 0 c 0,-19.49088 -22.1672,-35.29132 -49.511814,-35.29132 v 0 C 22.66719,182.31391 0.5,198.11436 0.5,217.60523 v 0 c 0,19.49088 22.16719,35.29135 49.511806,35.29135 v 0 c 27.344614,0 49.511814,-15.80048 49.511814,-35.29135 z"
     fill-rule="evenodd"
     id="path1139" />
  <path
     fill="#000000"
     fill-opacity="0"
     d="M 95.17715,190.13867 H 4.846454 v 51.71655 H 95.17715 Z"
     fill-rule="evenodd"
     id="path1141" />
  <path
     fill="#000000"
     d="m 28.998184,211.93869 v -9.46875 h 4.1875 q 0.65625,0 1.203125,0.26562 0.5625,0.26563 0.96875,0.71875 0.40625,0.45313 0.625,1.01563 0.21875,0.5625 0.21875,1.15625 0,0.59375 -0.21875,1.15625 -0.203125,0.54687 -0.59375,0.96875 -0.375,0.40625 -0.890625,0.625 l 2.15625,3.5625 h -2.03125 l -1.9375,-3.17188 h -1.84375 v 3.17188 z m 1.84375,-4.78125 h 2.296875 q 0.359375,0 0.625,-0.20313 0.265625,-0.21875 0.421875,-0.5625 0.15625,-0.34375 0.15625,-0.76562 0,-0.45313 -0.1875,-0.79688 -0.1875,-0.34375 -0.46875,-0.53125 -0.28125,-0.20312 -0.625,-0.20312 h -2.21875 z m 8.863174,-1.29688 v 6.07813 h -1.84375 v -9.46875 h 1.46875 l 4.890625,6.25 v -6.23438 h 1.84375 v 9.45313 h -1.53125 z m 10.903702,-3.39062 h 1.859375 l 3.484375,9.46875 h -1.890625 l -0.890625,-2.35938 h -3.296875 l -0.875,2.35938 H 47.10881 Z m 2.234375,5.8125 -1.3125,-3.90625 -1.359375,3.90625 z m 3.878342,5.26562 v -1.60937 h 4.890625 v 1.60937 z m 11.877717,-3.21875 v 1.60938 h -5.40625 v -1.60938 h 1.89062 v -4.04687 q -0.125,0.17187 -0.375,0.34375 -0.25,0.15625 -0.57812,0.3125 -0.3125,0.14062 -0.64063,0.23437 -0.3125,0.0937 -0.5625,0.0937 v -1.67187 q 0.23438,0 0.5625,-0.15625 0.34375,-0.15625 0.6875,-0.35938 0.34375,-0.21875 0.57813,-0.42187 0.25,-0.20313 0.32812,-0.32813 h 1.82813 v 6 z m 1.2872,3.14063 0.35937,-1.57813 h -0.5625 v -1.875 h 1.54688 v 1.875 l -0.54688,1.57813 z"
     fill-rule="nonzero"
     id="path1143" />
  <path
     fill="#000000"
     d="m 26.06602,227.93869 v -9.46875 h 4.1875 q 0.65625,0 1.203125,0.26562 0.5625,0.26563 0.96875,0.71875 0.40625,0.45313 0.625,1.01563 0.21875,0.5625 0.21875,1.15625 0,0.59375 -0.21875,1.15625 -0.203125,0.54687 -0.59375,0.96875 -0.375,0.40625 -0.890625,0.625 l 2.15625,3.5625 h -2.03125 l -1.9375,-3.17188 h -1.84375 v 3.17188 z m 1.84375,-4.78125 h 2.296875 q 0.359375,0 0.625,-0.20313 0.265625,-0.21875 0.421875,-0.5625 0.15625,-0.34375 0.15625,-0.76562 0,-0.45313 -0.1875,-0.79688 -0.1875,-0.34375 -0.46875,-0.53125 -0.28125,-0.20312 -0.625,-0.20312 h -2.21875 z m 8.863174,-1.29688 v 6.07813 h -1.84375 v -9.46875 h 1.46875 l 4.890625,6.25 v -6.23438 h 1.84375 v 9.45313 h -1.53125 z m 10.903702,-3.39062 h 1.859375 l 3.484375,9.46875 h -1.890625 l -0.890625,-2.35938 h -3.296875 l -0.875,2.35938 h -1.890625 z m 2.234375,5.8125 -1.3125,-3.90625 -1.359375,3.90625 z m 3.878342,5.26562 v -1.60937 h 4.890625 v 1.60937 z m 6.112091,-1.60937 q 0,-0.59375 0.09375,-1.07813 0.09375,-0.48437 0.328125,-0.89062 0.234375,-0.42188 0.640625,-0.78125 0.40625,-0.375 1.03125,-0.71875 0.54687,-0.29688 0.95312,-0.51563 0.42188,-0.21875 0.70313,-0.40625 0.29687,-0.1875 0.4375,-0.375 0.15625,-0.1875 0.15625,-0.45312 0,-0.26563 -0.15625,-0.48438 -0.14063,-0.21875 -0.40625,-0.34375 -0.26563,-0.14062 -0.67188,-0.14062 -0.3125,0 -0.59375,0.0781 -0.26562,0.0781 -0.5,0.23438 -0.23437,0.14062 -0.437495,0.32812 -0.203125,0.17188 -0.359375,0.375 l -1.125,-1.3125 q 0.171875,-0.17187 0.484375,-0.39062 0.328125,-0.23438 0.75,-0.42188 0.4375,-0.1875 0.953125,-0.3125 0.53125,-0.14062 1.14062,-0.14062 0.90625,0 1.54688,0.29687 0.64062,0.28125 0.96875,0.79688 0.34375,0.5 0.34375,1.17187 0,0.46875 -0.17188,0.82813 -0.17187,0.35937 -0.4375,0.64062 -0.26562,0.26563 -0.57812,0.48438 -0.3125,0.21875 -0.60938,0.375 -0.40625,0.20312 -0.75,0.39062 -0.32812,0.1875 -0.57812,0.375 -0.25,0.17188 -0.45313,0.35938 -0.1875,0.17187 -0.34375,0.42187 h 4.07813 v 1.60938 z m 7.78265,0 v -1.92188 h 1.46875 v 1.92188 z m 2.51562,0 v -1.92188 h 1.46875 v 1.92188 z m 2.5,0 v -1.92188 h 1.46875 v 1.92188 z"
     fill-rule="nonzero"
     id="path1145" />
  <path
     fill="#ffffff"
     d="m 267.52597,125.6363 -23.24625,-17.2412 -1.55117,2.0945 -1.08445,-7.29425 7.28919,-1.08371 -1.55121,2.0945 23.24628,17.24118 z"
     fill-rule="evenodd"
     id="path1147" />
  <path
     stroke="#595959"
     stroke-width="1"
     stroke-linejoin="round"
     stroke-linecap="butt"
     d="m 267.52597,125.6363 -23.24625,-17.2412 -1.55117,2.0945 -1.08445,-7.29425 7.28919,-1.08371 -1.55121,2.0945 23.24628,17.24118 z"
     fill-rule="evenodd"
     id="path1149" />
  <path
     fill="#f3f3f3"
     fill-opacity="0.6604"
     d="m 246.79919,76.94371 v 0 c 0,19.49087 -22.16717,35.29135 -49.5118,35.29135 v 0 c -27.34461,0 -49.5118,-15.80048 -49.5118,-35.29135 v 0 c 0,-19.49086 22.16719,-35.29134 49.5118,-35.29134 v 0 c 27.34463,0 49.5118,15.80048 49.5118,35.29134 z"
     fill-rule="evenodd"
     id="path1151" />
  <path
     stroke="#595959"
     stroke-width="1"
     stroke-linejoin="round"
     stroke-linecap="butt"
     d="m 246.79919,76.94371 v 0 c 0,19.49087 -22.16717,35.29135 -49.5118,35.29135 v 0 c -27.34461,0 -49.5118,-15.80048 -49.5118,-35.29135 v 0 c 0,-19.49086 22.16719,-35.29134 49.5118,-35.29134 v 0 c 27.34463,0 49.5118,15.80048 49.5118,35.29134 z"
     fill-rule="evenodd"
     id="path1153" />
  <path
     fill="#000000"
     fill-opacity="0"
     d="m 152.12204,58.36302 h 90.33072 v 37.16536 h -90.33072 z"
     fill-rule="evenodd"
     id="path1155" />
  <path
     fill="#000000"
     d="M 180.02322,81.44302 V 71.03677 h 7 v 1.78125 h -4.96875 v 2.67187 h 4.125 v 1.64063 h -4.125 v 4.3125 z m 8.22522,0 v -7.6875 h 1.96875 v 7.6875 z m 0,-8.75 v -1.95313 h 1.96875 v 1.95313 z m 3.72173,-1.95313 h 1.96875 v 8.23438 q 0,0.53125 0.17187,0.71875 0.17188,0.1875 0.48438,0.1875 0.23437,0 0.48437,-0.0625 0.25,-0.0625 0.4375,-0.14063 l 0.26563,1.48438 q -0.39063,0.1875 -0.92188,0.29687 -0.53125,0.10938 -0.95312,0.10938 -0.92188,0 -1.4375,-0.48438 -0.5,-0.5 -0.5,-1.40625 z m 9.18304,10.3125 q -0.25,0.0937 -0.60938,0.23438 -0.34375,0.125 -0.75,0.20312 -0.40625,0.0781 -0.8125,0.0781 -0.54687,0 -1,-0.1875 -0.45312,-0.1875 -0.73437,-0.59375 -0.26563,-0.42188 -0.26563,-1.10938 v -4.40625 h -1 v -1.51562 h 1 v -2.48438 h 1.96875 v 2.48438 h 1.60938 v 1.51562 h -1.60938 v 3.75 q 0.0156,0.40625 0.21875,0.57813 0.20313,0.17187 0.51563,0.17187 0.3125,0 0.59375,-0.0937 0.29687,-0.10937 0.46875,-0.1875 z m 4.47848,0.53125 q -0.92187,0 -1.67187,-0.3125 -0.75,-0.3125 -1.28125,-0.85937 -0.51563,-0.54688 -0.8125,-1.25 -0.28125,-0.71875 -0.28125,-1.51563 0,-1.09375 0.48437,-2 0.5,-0.92187 1.40625,-1.46875 0.92188,-0.54687 2.17188,-0.54687 1.26562,0 2.15625,0.54687 0.89062,0.54688 1.35937,1.45313 0.48438,0.90625 0.48438,1.9375 0,0.1875 -0.0156,0.375 -0.0156,0.17187 -0.0312,0.29687 h -5.9375 q 0.0625,0.57813 0.34375,1.01563 0.29688,0.4375 0.73438,0.67187 0.45312,0.21875 0.96875,0.21875 0.57812,0 1.09375,-0.28125 0.53125,-0.28125 0.71875,-0.75 l 1.6875,0.46875 q -0.28125,0.57813 -0.79688,1.04688 -0.51562,0.45312 -1.21875,0.70312 -0.70312,0.25 -1.5625,0.25 z m -2,-4.59375 h 4.01563 q -0.0625,-0.59375 -0.34375,-1.01562 -0.26563,-0.4375 -0.70313,-0.67188 -0.4375,-0.25 -0.98437,-0.25 -0.53125,0 -0.96875,0.25 -0.42188,0.23438 -0.70313,0.67188 -0.26562,0.42187 -0.3125,1.01562 z m 11.79476,-1.53125 q -0.89063,0 -1.59375,0.34375 -0.70313,0.34375 -1.01563,1 v 4.64063 h -1.96875 v -7.6875 h 1.8125 v 1.65625 q 0.40625,-0.79688 1.03125,-1.25 0.64063,-0.45313 1.34375,-0.5 0.15625,0 0.23438,0 0.0937,0 0.15625,0.0156 z"
     fill-rule="nonzero"
     id="path1157" />
  <path
     fill="#ffffff"
     d="m 136.53174,79.56692 -20.55118,-0.0251 v 2.60631 l -5.2126,-5.21898 5.2126,-5.20622 v 2.60629 l 20.55118,0.0251 z"
     fill-rule="evenodd"
     id="path1159" />
  <path
     stroke="#595959"
     stroke-width="1"
     stroke-linejoin="round"
     stroke-linecap="butt"
     d="m 136.53174,79.56692 -20.55118,-0.0251 v 2.60631 l -5.2126,-5.21898 5.2126,-5.20622 v 2.60629 l 20.55118,0.0251 z"
     fill-rule="evenodd"
     id="path1161" />
  <path
     fill="#f3f3f3"
     fill-opacity="0.6604"
     d="m 99.52362,76.94371 v 0 c 0,19.49087 -22.1672,35.29135 -49.511814,35.29135 v 0 C 22.66719,112.23506 0.5,96.43458 0.5,76.94371 v 0 C 0.5,57.45285 22.66719,41.65237 50.011806,41.65237 v 0 c 27.344614,0 49.511814,15.80048 49.511814,35.29134 z"
     fill-rule="evenodd"
     id="path1163" />
  <path
     stroke="#595959"
     stroke-width="1"
     stroke-linejoin="round"
     stroke-linecap="butt"
     d="m 99.52362,76.94371 v 0 c 0,19.49087 -22.1672,35.29135 -49.511814,35.29135 v 0 C 22.66719,112.23506 0.5,96.43458 0.5,76.94371 v 0 C 0.5,57.45285 22.66719,41.65237 50.011806,41.65237 v 0 c 27.344614,0 49.511814,15.80048 49.511814,35.29134 z"
     fill-rule="evenodd"
     id="path1165" />
  <path
     fill="#000000"
     fill-opacity="0"
     d="M 0.499494,58.36261 H 99.52311 V 93.92166 H 0.499494 Z"
     fill-rule="evenodd"
     id="path1167" />
  <path
     fill="#000000"
     d="m 22.181541,72.31884 h -3.03125 v 7.84375 h -1.8125 v -7.84375 h -3.03125 v -1.625 h 7.875 z m 4.489651,2.40625 q -0.8125,0 -1.453122,0.3125 -0.640625,0.3125 -0.921875,0.90625 v 4.21875 h -1.78125 v -6.98438 h 1.640625 v 1.5 q 0.375,-0.71875 0.9375,-1.125 0.578122,-0.42187 1.218747,-0.46875 0.15625,0 0.234375,0 0.07813,0 0.125,0.0156 z m 0.939209,2.82812 v -4.375 h 1.78125 v 3.98438 q 0,0.79687 0.296875,1.20312 0.296875,0.40625 0.859375,0.40625 0.34375,0 0.6875,-0.14062 0.34375,-0.14063 0.625,-0.40625 0.296875,-0.28125 0.484375,-0.71875 v -4.32813 h 1.796875 v 4.98438 q 0,0.28125 0.09375,0.40625 0.109375,0.10937 0.328125,0.14062 v 1.45313 q -0.265625,0.0469 -0.453125,0.0625 -0.171875,0.0156 -0.3125,0.0156 -0.484375,0 -0.796875,-0.21875 -0.296875,-0.21875 -0.34375,-0.60937 l -0.04687,-0.5625 q -0.453125,0.71875 -1.1875,1.09375 -0.734375,0.35937 -1.609375,0.35937 -1.09375,0 -1.65625,-0.70312 -0.546875,-0.70313 -0.546875,-2.04688 z m 11.53363,2.75 q -0.828125,0 -1.515625,-0.28125 -0.671875,-0.29687 -1.15625,-0.79687 -0.484375,-0.5 -0.75,-1.14063 -0.25,-0.65625 -0.25,-1.375 0,-1 0.4375,-1.82812 0.453125,-0.82813 1.28125,-1.32813 0.84375,-0.5 1.96875,-0.5 1.15625,0 1.96875,0.5 0.8125,0.5 1.234375,1.32813 0.4375,0.8125 0.4375,1.76562 0,0.15625 -0.01563,0.32813 -0.01563,0.15625 -0.03125,0.26562 h -5.390625 q 0.04687,0.53125 0.3125,0.9375 0.265625,0.39063 0.671875,0.60938 0.40625,0.20312 0.875,0.20312 0.53125,0 1,-0.25 0.46875,-0.26562 0.640625,-0.70312 l 1.53125,0.4375 q -0.25,0.53125 -0.71875,0.95312 -0.46875,0.40625 -1.109375,0.64063 -0.640625,0.23437 -1.421875,0.23437 z m -1.828125,-4.1875 h 3.65625 q -0.04687,-0.53125 -0.296875,-0.92187 -0.25,-0.40625 -0.65625,-0.625 -0.390625,-0.21875 -0.890625,-0.21875 -0.46875,0 -0.875,0.21875 -0.390625,0.21875 -0.640625,0.625 -0.234375,0.39062 -0.296875,0.92187 z m 14.70227,-5.42187 -6.609375,9.46875 h -1.96875 l 6.59375,-9.46875 z m 1.349869,9.46875 v -9.46875 h 6.359375 v 1.625 h -4.515625 v 2.4375 h 3.75 v 1.48437 h -3.75 v 3.92188 z m 6.420731,-2.0625 q 0,-0.6875 0.375,-1.1875 0.390625,-0.51563 1.0625,-0.79688 0.687498,-0.28125 1.562498,-0.28125 0.4375,0 0.89063,0.0625 0.45312,0.0625 0.79687,0.21875 v -0.375 q 0,-0.67187 -0.40625,-1.03125 -0.39062,-0.35937 -1.15625,-0.35937 -0.57812,0 -1.09375,0.20312 -0.515623,0.20313 -1.093748,0.57813 l -0.578125,-1.17188 q 0.703125,-0.45312 1.421875,-0.67187 0.734378,-0.23438 1.531248,-0.23438 1.48438,0 2.3125,0.75 0.84375,0.75 0.84375,2.14063 v 2.21875 q 0,0.28125 0.0937,0.40625 0.10938,0.10937 0.32813,0.14062 v 1.45313 q -0.23438,0.0469 -0.4375,0.0625 -0.1875,0.0312 -0.3125,0.0312 -0.53125,0 -0.8125,-0.23438 -0.26563,-0.25 -0.34375,-0.59375 l -0.0312,-0.35937 q -0.45313,0.59375 -1.14063,0.92187 -0.67187,0.3125 -1.375,0.3125 -0.703123,0 -1.265623,-0.28125 -0.546875,-0.29687 -0.859375,-0.79687 -0.3125,-0.5 -0.3125,-1.125 z m 4.343748,0.35937 q 0.15625,-0.15625 0.25,-0.3125 0.0937,-0.17187 0.0937,-0.29687 v -0.71875 q -0.32812,-0.125 -0.70312,-0.20313 -0.375,-0.0781 -0.70313,-0.0781 -0.6875,0 -1.14062,0.3125 -0.437503,0.29687 -0.437503,0.78125 0,0.26562 0.140625,0.51562 0.140628,0.23438 0.421878,0.39063 0.28125,0.14062 0.67187,0.14062 0.40625,0 0.78125,-0.15625 0.39063,-0.15625 0.625,-0.375 z m 3.77532,-8.03125 h 1.78125 v 7.5 q 0,0.46875 0.15625,0.64063 0.17187,0.17187 0.45312,0.17187 0.21875,0 0.4375,-0.0469 0.23438,-0.0625 0.40625,-0.14063 l 0.23438,1.35938 q -0.35938,0.17187 -0.84375,0.26562 -0.46875,0.0937 -0.85938,0.0937 -0.84375,0 -1.3125,-0.4375 -0.45312,-0.45312 -0.45312,-1.28125 z m 6.81875,9.875 q -0.89062,0 -1.71875,-0.29687 -0.8125,-0.29688 -1.39062,-0.875 l 0.64062,-1.15625 q 0.625,0.51562 1.23438,0.75 0.60937,0.23437 1.15625,0.23437 0.531246,0 0.843746,-0.1875 0.3125,-0.1875 0.3125,-0.5625 0,-0.25 -0.17188,-0.39062 -0.17187,-0.14063 -0.5,-0.23438 -0.328116,-0.10937 -0.796866,-0.25 -0.78125,-0.25 -1.29688,-0.48437 -0.51562,-0.25 -0.78125,-0.60938 -0.25,-0.375 -0.25,-0.9375 0,-0.70312 0.34375,-1.20312 0.35938,-0.5 0.98438,-0.78125 0.64062,-0.28125 1.48437,-0.28125 0.749996,0 1.421876,0.23437 0.67187,0.23438 1.21875,0.76563 l -0.73438,1.125 q -0.53125,-0.40625 -1.01562,-0.59375 -0.46875,-0.20313 -0.968746,-0.20313 -0.28125,0 -0.53125,0.0625 -0.23438,0.0625 -0.39063,0.21875 -0.15625,0.15625 -0.15625,0.4375 0,0.25 0.14063,0.39063 0.14062,0.14062 0.42187,0.25 0.29688,0.10937 0.703126,0.23437 0.84375,0.25 1.42187,0.5 0.57813,0.25 0.875,0.625 0.29688,0.35938 0.29688,1 0,1.03125 -0.76563,1.625 -0.75,0.59375 -2.031246,0.59375 z m 7.240326,0 q -0.82813,0 -1.51563,-0.28125 -0.67187,-0.29687 -1.15625,-0.79687 -0.48437,-0.5 -0.75,-1.14063 -0.25,-0.65625 -0.25,-1.375 0,-1 0.4375,-1.82812 0.45313,-0.82813 1.28125,-1.32813 0.84375,-0.5 1.96875,-0.5 1.15625,0 1.96875,0.5 0.8125,0.5 1.23438,1.32813 0.4375,0.8125 0.4375,1.76562 0,0.15625 -0.0156,0.32813 -0.0156,0.15625 -0.0312,0.26562 h -5.39062 q 0.0469,0.53125 0.3125,0.9375 0.26562,0.39063 0.67187,0.60938 0.40625,0.20312 0.875,0.20312 0.53125,0 1,-0.25 0.46875,-0.26562 0.64063,-0.70312 l 1.53125,0.4375 q -0.25,0.53125 -0.71875,0.95312 -0.46875,0.40625 -1.10938,0.64063 -0.64062,0.23437 -1.42187,0.23437 z m -1.82813,-4.1875 h 3.65625 q -0.0469,-0.53125 -0.29687,-0.92187 -0.25,-0.40625 -0.65625,-0.625 -0.39063,-0.21875 -0.89063,-0.21875 -0.46875,0 -0.875,0.21875 -0.39062,0.21875 -0.64062,0.625 -0.23438,0.39062 -0.29688,0.92187 z"
     fill-rule="nonzero"
     id="path1169" />
  <path
     fill="#000000"
     d="m 172.8819,5.04688 v 2.48437 q 1.92187,-1.73437 2.875,-2.21875 0.95312,-0.5 1.76562,-0.5 0.875,0 1.625,0.59375 0.76563,0.57813 0.76563,0.89063 0,0.21875 -0.15625,0.375 -0.14063,0.14062 -0.35938,0.14062 -0.125,0 -0.20312,-0.0312 -0.0781,-0.0469 -0.3125,-0.28125 -0.40625,-0.40625 -0.71875,-0.54687 -0.29688,-0.15625 -0.59375,-0.15625 -0.64063,0 -1.54688,0.51562 -0.90625,0.51563 -3.14062,2.51563 v 5.39062 h 4.35937 q 0.35938,0 0.5,0.14063 0.15625,0.125 0.15625,0.34375 0,0.21875 -0.15625,0.35937 -0.14062,0.14063 -0.5,0.14063 h -7.73437 q -0.34375,0 -0.5,-0.125 -0.15625,-0.14063 -0.15625,-0.35938 0,-0.20312 0.14062,-0.32812 0.15625,-0.14063 0.51563,-0.14063 h 2.39062 V 6.04693 h -1.82812 q -0.34375,0 -0.5,-0.14063 -0.15625,-0.14062 -0.15625,-0.35937 0,-0.21875 0.14062,-0.35938 0.15625,-0.14062 0.51563,-0.14062 z m 12.38672,0 v 1.5 q 1.03125,-1.04688 1.85937,-1.4375 0.84375,-0.40625 1.89063,-0.40625 1.125,0 2.04687,0.48437 0.65625,0.34375 1.1875,1.15625 0.53125,0.8125 0.53125,1.67188 v 6.20312 h 0.82813 q 0.35937,0 0.5,0.14063 0.15625,0.125 0.15625,0.34375 0,0.21875 -0.15625,0.35937 -0.14063,0.14063 -0.5,0.14063 h -2.625 q -0.375,0 -0.53125,-0.14063 -0.14063,-0.14062 -0.14063,-0.35937 0,-0.21875 0.14063,-0.34375 0.15625,-0.14063 0.53125,-0.14063 h 0.8125 V 8.1875 q 0,-1.04687 -0.76563,-1.76562 -0.75,-0.71875 -2.03125,-0.71875 -0.96875,0 -1.6875,0.39062 -0.71875,0.39063 -2.04687,1.95313 v 6.17187 h 1.125 q 0.34375,0 0.5,0.14063 0.15625,0.125 0.15625,0.34375 0,0.21875 -0.15625,0.35937 -0.15625,0.14063 -0.5,0.14063 h -3.21875 q -0.34375,0 -0.5,-0.14063 -0.15625,-0.14062 -0.15625,-0.35937 0,-0.21875 0.15625,-0.34375 0.15625,-0.14063 0.5,-0.14063 h 1.10937 V 6.04688 h -0.82812 q -0.34375,0 -0.5,-0.14063 -0.15625,-0.14062 -0.15625,-0.35937 0,-0.21875 0.15625,-0.35938 0.15625,-0.14062 0.5,-0.14062 z m 20.41797,10.15625 v -1.42188 q -2.14063,1.8125 -4.57813,1.8125 -1.76562,0 -2.76562,-0.89062 -1,-0.90625 -1,-2.20313 0,-1.4375 1.3125,-2.5 1.3125,-1.0625 3.82812,-1.0625 0.6875,0 1.48438,0.0937 0.79687,0.0781 1.71875,0.26563 V 7.70308 q 0,-0.8125 -0.75,-1.40625 -0.75,-0.59375 -2.25,-0.59375 -1.14063,0 -3.21875,0.65625 -0.375,0.125 -0.48438,0.125 -0.1875,0 -0.32812,-0.14063 -0.125,-0.14062 -0.125,-0.35937 0,-0.1875 0.10937,-0.3125 0.17188,-0.17188 1.32813,-0.48438 1.82812,-0.48437 2.76562,-0.48437 1.85938,0 2.90625,0.92187 1.04688,0.92188 1.04688,2.07813 v 6.51562 h 1.3125 q 0.35937,0 0.51562,0.14063 0.15625,0.125 0.15625,0.34375 0,0.21875 -0.15625,0.35937 -0.15625,0.14063 -0.51562,0.14063 z m 0,-4.90625 q -0.6875,-0.1875 -1.46875,-0.28125 -0.76563,-0.0937 -1.625,-0.0937 -2.14063,0 -3.34375,0.92187 -0.92188,0.6875 -0.92188,1.65625 0,0.89063 0.6875,1.5 0.70313,0.60938 2.04688,0.60938 1.28125,0 2.375,-0.51563 1.09375,-0.51562 2.25,-1.625 z m 14.88672,-3.4375 v -1.8125 h 2.3125 q 0.34375,0 0.5,0.14062 0.15625,0.14063 0.15625,0.375 0,0.20313 -0.15625,0.34375 -0.15625,0.14063 -0.5,0.14063 h -1.32813 v 9.84375 q 0,0.98437 -0.42187,1.75 -0.28125,0.51562 -0.9375,1.0625 -0.65625,0.5625 -1.20313,0.79687 -0.53125,0.23438 -1.4375,0.23438 h -2.78125 q -0.35937,0 -0.51562,-0.14063 -0.14063,-0.14062 -0.14063,-0.35937 0,-0.21875 0.14063,-0.35938 0.15625,-0.14062 0.51562,-0.14062 l 2.8125,0.0156 q 0.875,0 1.5625,-0.45312 0.70313,-0.4375 1.15625,-1.29688 0.26563,-0.5 0.26563,-1.25 v -2.96875 q -1.57813,2.17188 -4.07813,2.17188 -2.03125,0 -3.5,-1.5 -1.46875,-1.51563 -1.46875,-3.625 0,-2.125 1.46875,-3.625 1.46875,-1.5 3.5,-1.5 2.5,0 4.07813,2.15625 z m 0,2.96875 q 0,-1.73438 -1.1875,-2.92188 -1.1875,-1.20312 -2.84375,-1.20312 -1.65625,0 -2.84375,1.20312 -1.17188,1.1875 -1.17188,2.92188 0,1.73437 1.17188,2.9375 1.1875,1.1875 2.84375,1.1875 1.65625,0 2.84375,-1.1875 1.1875,-1.20313 1.1875,-2.9375 z M 232.16315,0.5 v 13.71875 h 3.85938 q 0.375,0 0.51562,0.14063 0.15625,0.125 0.15625,0.34375 0,0.21875 -0.15625,0.35937 -0.14062,0.14063 -0.51562,0.14063 h -8.71875 q -0.34375,0 -0.5,-0.14063 -0.15625,-0.14062 -0.15625,-0.35937 0,-0.21875 0.15625,-0.34375 0.15625,-0.14063 0.5,-0.14063 h 3.875 V 1.48438 h -2.84375 q -0.34375,0 -0.5,-0.14063 -0.15625,-0.14062 -0.15625,-0.35937 0,-0.20313 0.14062,-0.34375 Q 227.97565,0.5 228.33503,0.5 Z M 246.54987,0 v 2.54688 h -1.45313 V 0 Z m 0.0312,5.04688 v 9.17187 h 3.875 q 0.35937,0 0.51562,0.14063 0.15625,0.125 0.15625,0.34375 0,0.21875 -0.15625,0.35937 -0.15625,0.14063 -0.51562,0.14063 h -8.71875 q -0.35938,0 -0.51563,-0.14063 -0.14062,-0.14062 -0.14062,-0.35937 0,-0.21875 0.14062,-0.34375 0.15625,-0.14063 0.51563,-0.14063 h 3.85937 V 6.04688 h -2.85937 q -0.35938,0 -0.51563,-0.14063 -0.15625,-0.14062 -0.15625,-0.34375 0,-0.23437 0.14063,-0.375 0.15625,-0.14062 0.53125,-0.14062 z M 256.76466,0.5 v 6.51563 q 1.78125,-2.3125 4.29688,-2.3125 2.15625,0 3.6875,1.5625 1.53125,1.5625 1.53125,3.84375 0,2.29687 -1.54688,3.89062 -1.54687,1.59375 -3.67187,1.59375 -2.57813,0 -4.29688,-2.32812 v 1.9375 h -2.3125 q -0.35937,0 -0.51562,-0.14063 -0.14063,-0.14062 -0.14063,-0.35937 0,-0.21875 0.14063,-0.34375 0.15625,-0.14063 0.51562,-0.14063 h 1.32813 V 1.48438 h -1.32813 q -0.35937,0 -0.51562,-0.14063 -0.14063,-0.14062 -0.14063,-0.35937 0,-0.20313 0.14063,-0.34375 Q 254.09279,0.5 254.45216,0.5 Z m 8.53125,9.65625 q 0,-1.875 -1.28125,-3.15625 -1.26562,-1.29687 -2.98437,-1.29687 -1.70313,0 -2.98438,1.29687 -1.28125,1.28125 -1.28125,3.15625 0,1.85938 1.28125,3.15625 1.28125,1.29688 2.98438,1.29688 1.71875,0 2.98437,-1.29688 1.28125,-1.29687 1.28125,-3.15625 z m 9.3711,2.21875 h 0.42187 q 0.65625,0 1.125,0.46875 0.46875,0.45313 0.46875,1.10938 0,0.6875 -0.48437,1.15625 -0.46875,0.45312 -1.10938,0.45312 h -0.42187 q -0.65625,0 -1.125,-0.46875 -0.46875,-0.46875 -0.46875,-1.125 0,-0.67187 0.46875,-1.125 0.48437,-0.46875 1.125,-0.46875 z M 288.1006,5.04688 v 2.48437 q 1.92188,-1.73437 2.875,-2.21875 0.95313,-0.5 1.76563,-0.5 0.875,0 1.625,0.59375 0.76562,0.57813 0.76562,0.89063 0,0.21875 -0.15625,0.375 -0.14062,0.14062 -0.35937,0.14062 -0.125,0 -0.20313,-0.0312 -0.0781,-0.0469 -0.3125,-0.28125 -0.40625,-0.40625 -0.71875,-0.54687 -0.29687,-0.15625 -0.59375,-0.15625 -0.64062,0 -1.54687,0.51562 -0.90625,0.51563 -3.14063,2.51563 v 5.39062 h 4.35938 q 0.35937,0 0.5,0.14063 0.15625,0.125 0.15625,0.34375 0,0.21875 -0.15625,0.35937 -0.14063,0.14063 -0.5,0.14063 h -7.73438 q -0.34375,0 -0.5,-0.125 -0.15625,-0.14063 -0.15625,-0.35938 0,-0.20312 0.14063,-0.32812 0.15625,-0.14063 0.51562,-0.14063 h 2.39063 V 6.04693 h -1.82813 q -0.34375,0 -0.5,-0.14063 -0.15625,-0.14062 -0.15625,-0.35937 0,-0.21875 0.14063,-0.35938 0.15625,-0.14062 0.51562,-0.14062 z m 12.38672,0 v 1.5 q 1.03125,-1.04688 1.85938,-1.4375 0.84375,-0.40625 1.89062,-0.40625 1.125,0 2.04688,0.48437 0.65625,0.34375 1.1875,1.15625 0.53125,0.8125 0.53125,1.67188 v 6.20312 h 0.82812 q 0.35938,0 0.5,0.14063 0.15625,0.125 0.15625,0.34375 0,0.21875 -0.15625,0.35937 -0.14062,0.14063 -0.5,0.14063 h -2.625 q -0.375,0 -0.53125,-0.14063 -0.14062,-0.14062 -0.14062,-0.35937 0,-0.21875 0.14062,-0.34375 0.15625,-0.14063 0.53125,-0.14063 h 0.8125 V 8.1875 q 0,-1.04687 -0.76562,-1.76562 -0.75,-0.71875 -2.03125,-0.71875 -0.96875,0 -1.6875,0.39062 -0.71875,0.39063 -2.04688,1.95313 v 6.17187 h 1.125 q 0.34375,0 0.5,0.14063 0.15625,0.125 0.15625,0.34375 0,0.21875 -0.15625,0.35937 -0.15625,0.14063 -0.5,0.14063 h -3.21875 q -0.34375,0 -0.5,-0.14063 -0.15625,-0.14062 -0.15625,-0.35937 0,-0.21875 0.15625,-0.34375 0.15625,-0.14063 0.5,-0.14063 h 1.10938 V 6.04688 h -0.82813 q -0.34375,0 -0.5,-0.14063 -0.15625,-0.14062 -0.15625,-0.35937 0,-0.21875 0.15625,-0.35938 0.15625,-0.14062 0.5,-0.14062 z m 20.41797,10.15625 v -1.42188 q -2.14063,1.8125 -4.57813,1.8125 -1.76562,0 -2.76562,-0.89062 -1,-0.90625 -1,-2.20313 0,-1.4375 1.3125,-2.5 1.3125,-1.0625 3.82812,-1.0625 0.6875,0 1.48438,0.0937 0.79687,0.0781 1.71875,0.26563 V 7.70308 q 0,-0.8125 -0.75,-1.40625 -0.75,-0.59375 -2.25,-0.59375 -1.14063,0 -3.21875,0.65625 -0.375,0.125 -0.48438,0.125 -0.1875,0 -0.32812,-0.14063 -0.125,-0.14062 -0.125,-0.35937 0,-0.1875 0.10937,-0.3125 0.17188,-0.17188 1.32813,-0.48438 1.82812,-0.48437 2.76562,-0.48437 1.85938,0 2.90625,0.92187 1.04688,0.92188 1.04688,2.07813 v 6.51562 h 1.3125 q 0.35937,0 0.51562,0.14063 0.15625,0.125 0.15625,0.34375 0,0.21875 -0.15625,0.35937 -0.15625,0.14063 -0.51562,0.14063 z m 0,-4.90625 q -0.6875,-0.1875 -1.46875,-0.28125 -0.76563,-0.0937 -1.625,-0.0937 -2.14063,0 -3.34375,0.92187 -0.92188,0.6875 -0.92188,1.65625 0,0.89063 0.6875,1.5 0.70313,0.60938 2.04688,0.60938 1.28125,0 2.375,-0.51563 1.09375,-0.51562 2.25,-1.625 z m 18.12109,11.48437 h -13.09375 q -0.34375,0 -0.5,-0.14062 -0.15625,-0.125 -0.15625,-0.35938 0,-0.21875 0.15625,-0.35937 0.15625,-0.125 0.5,-0.125 h 13.09375 q 0.35938,0 0.5,0.125 0.15625,0.14062 0.15625,0.35937 0,0.23438 -0.15625,0.35938 -0.14062,0.14062 -0.5,0.14062 z m 5.83985,-16.73437 h 5.34375 q 0.34375,0 0.5,0.14062 0.15625,0.14063 0.15625,0.375 0,0.20313 -0.15625,0.34375 -0.15625,0.14063 -0.5,0.14063 h -5.34375 v 6.54687 q 0,0.85938 0.67187,1.4375 0.6875,0.57813 2.01563,0.57813 1,0 2.15625,-0.29688 1.15625,-0.3125 1.8125,-0.6875 0.23437,-0.14062 0.375,-0.14062 0.1875,0 0.32812,0.14062 0.14063,0.14063 0.14063,0.34375 0,0.17188 -0.14063,0.32813 -0.375,0.39062 -1.82812,0.84375 -1.45313,0.45312 -2.76563,0.45312 -1.73437,0 -2.75,-0.8125 -1.01562,-0.8125 -1.01562,-2.1875 V 6.04688 h -1.8125 q -0.35938,0 -0.51563,-0.14063 -0.14062,-0.14062 -0.14062,-0.35937 0,-0.21875 0.14062,-0.35938 0.15625,-0.14062 0.51563,-0.14062 h 1.8125 V 2.14063 q 0,-0.34375 0.14062,-0.5 0.14063,-0.15625 0.34375,-0.15625 0.23438,0 0.375,0.15625 0.14063,0.15625 0.14063,0.5 z m 15.24609,0 v 2.48437 q 1.92188,-1.73437 2.875,-2.21875 0.95313,-0.5 1.76563,-0.5 0.875,0 1.625,0.59375 0.76562,0.57813 0.76562,0.89063 0,0.21875 -0.15625,0.375 -0.14062,0.14062 -0.35937,0.14062 -0.125,0 -0.20313,-0.0312 -0.0781,-0.0469 -0.3125,-0.28125 -0.40625,-0.40625 -0.71875,-0.54687 -0.29687,-0.15625 -0.59375,-0.15625 -0.64062,0 -1.54687,0.51562 -0.90625,0.51563 -3.14063,2.51563 v 5.39062 h 4.35938 q 0.35937,0 0.5,0.14063 0.15625,0.125 0.15625,0.34375 0,0.21875 -0.15625,0.35937 -0.14063,0.14063 -0.5,0.14063 h -7.73438 q -0.34375,0 -0.5,-0.125 -0.15625,-0.14063 -0.15625,-0.35938 0,-0.20312 0.14063,-0.32812 0.15625,-0.14063 0.51562,-0.14063 h 2.39063 V 6.04693 h -1.82813 q -0.34375,0 -0.5,-0.14063 -0.15625,-0.14062 -0.15625,-0.35937 0,-0.21875 0.14063,-0.35938 0.15625,-0.14062 0.51562,-0.14062 z m 18.40238,10.15625 v -1.42188 q -2.14063,1.8125 -4.57816,1.8125 -1.76562,0 -2.76562,-0.89062 -1,-0.90625 -1,-2.20313 0,-1.4375 1.3125,-2.5 1.3125,-1.0625 3.82812,-1.0625 0.68753,0 1.48441,0.0937 0.79687,0.0781 1.71875,0.26563 V 7.70308 q 0,-0.8125 -0.75,-1.40625 -0.75,-0.59375 -2.25,-0.59375 -1.14066,0 -3.21878,0.65625 -0.375,0.125 -0.48438,0.125 -0.1875,0 -0.32812,-0.14063 -0.125,-0.14062 -0.125,-0.35937 0,-0.1875 0.10937,-0.3125 0.17188,-0.17188 1.32813,-0.48438 1.82812,-0.48437 2.76565,-0.48437 1.85938,0 2.90625,0.92187 1.04688,0.92188 1.04688,2.07813 v 6.51562 h 1.3125 q 0.35937,0 0.51562,0.14063 0.15625,0.125 0.15625,0.34375 0,0.21875 -0.15625,0.35937 -0.15625,0.14063 -0.51562,0.14063 z m 0,-4.90625 q -0.6875,-0.1875 -1.46875,-0.28125 -0.76563,-0.0937 -1.625,-0.0937 -2.14066,0 -3.34378,0.92187 -0.92188,0.6875 -0.92188,1.65625 0,0.89063 0.6875,1.5 0.70313,0.60938 2.04688,0.60938 1.28125,0 2.37503,-0.51563 1.09375,-0.51562 2.25,-1.625 z m 8.38671,-5.25 v 1.5 q 1.03125,-1.04688 1.85938,-1.4375 0.84375,-0.40625 1.89062,-0.40625 1.125,0 2.04688,0.48437 0.65625,0.34375 1.1875,1.15625 0.53125,0.8125 0.53125,1.67188 v 6.20312 h 0.82812 q 0.35938,0 0.5,0.14063 0.15625,0.125 0.15625,0.34375 0,0.21875 -0.15625,0.35937 -0.14062,0.14063 -0.5,0.14063 h -2.625 q -0.375,0 -0.53125,-0.14063 -0.14062,-0.14062 -0.14062,-0.35937 0,-0.21875 0.14062,-0.34375 0.15625,-0.14063 0.53125,-0.14063 h 0.8125 V 8.1875 q 0,-1.04687 -0.76562,-1.76562 -0.75,-0.71875 -2.03125,-0.71875 -0.96875,0 -1.6875,0.39062 -0.71875,0.39063 -2.04688,1.95313 v 6.17187 h 1.125 q 0.34375,0 0.5,0.14063 0.15625,0.125 0.15625,0.34375 0,0.21875 -0.15625,0.35937 -0.15625,0.14063 -0.5,0.14063 h -3.21875 q -0.34375,0 -0.5,-0.14063 -0.15625,-0.14062 -0.15625,-0.35937 0,-0.21875 0.15625,-0.34375 0.15625,-0.14063 0.5,-0.14063 h 1.10938 V 6.04688 h -0.82813 q -0.34375,0 -0.5,-0.14063 -0.15625,-0.14062 -0.15625,-0.35937 0,-0.21875 0.15625,-0.35938 0.15625,-0.14062 0.5,-0.14062 z m 20.83985,0.65625 q 0,-0.34375 0.14062,-0.5 0.14063,-0.15625 0.35938,-0.15625 0.21875,0 0.35937,0.15625 0.14063,0.15625 0.14063,0.51562 v 1.6875 q 0,0.35938 -0.14063,0.51563 -0.14062,0.14062 -0.35937,0.14062 -0.20313,0 -0.34375,-0.125 -0.125,-0.125 -0.15625,-0.42187 -0.0625,-0.70313 -0.71875,-1.15625 -0.96875,-0.65625 -2.54688,-0.65625 -1.65625,0 -2.5625,0.65625 -0.70312,0.51562 -0.70312,1.125 0,0.70312 0.82812,1.17187 0.5625,0.32813 2.125,0.51563 2.0625,0.21875 2.85938,0.5 1.125,0.40625 1.6875,1.14062 0.5625,0.71875 0.5625,1.5625 0,1.25 -1.21875,2.23438 -1.20313,0.98437 -3.53125,0.98437 -2.32813,0 -3.82813,-1.1875 0,0.39063 -0.0469,0.51563 -0.0469,0.10937 -0.17188,0.20312 -0.10937,0.0781 -0.26562,0.0781 -0.21875,0 -0.35938,-0.15625 -0.14062,-0.15625 -0.14062,-0.5 V 12.5156 q 0,-0.34375 0.14062,-0.5 0.14063,-0.15625 0.35938,-0.15625 0.20312,0 0.34375,0.15625 0.15625,0.14062 0.15625,0.39062 0,0.53125 0.26562,0.89063 0.42188,0.5625 1.3125,0.9375 0.89063,0.375 2.20313,0.375 1.92187,0 2.85937,-0.71875 0.9375,-0.71875 0.9375,-1.51563 0,-0.90625 -0.95312,-1.46875 -0.96875,-0.54687 -2.79688,-0.73437 -1.82812,-0.1875 -2.625,-0.48438 -0.79687,-0.3125 -1.25,-0.92187 -0.4375,-0.60938 -0.4375,-1.3125 0,-1.26563 1.23438,-2 1.25,-0.75 2.96875,-0.75 2.03125,0 3.3125,1 z m 10.49609,0.34375 v 8.17187 h 4.32813 q 0.35937,0 0.5,0.14063 0.15625,0.125 0.15625,0.34375 0,0.21875 -0.15625,0.35937 -0.14063,0.14063 -0.5,0.14063 h -7.70313 q -0.34375,0 -0.5,-0.14063 -0.15625,-0.14062 -0.15625,-0.35937 0,-0.21875 0.15625,-0.34375 0.15625,-0.14063 0.5,-0.14063 h 2.39063 V 6.04688 h -2.14063 q -0.34375,0 -0.5,-0.14063 -0.15625,-0.14062 -0.15625,-0.35937 0,-0.21875 0.15625,-0.35938 0.15625,-0.14062 0.5,-0.14062 h 2.14063 V 3.5625 q 0,-1.23437 1,-2.14062 Q 419.2686,0.5 420.92485,0.5 q 1.39063,0 2.98438,0.25 0.59375,0.0937 0.71875,0.23438 0.125,0.125 0.125,0.32812 0,0.21875 -0.14063,0.35938 -0.14062,0.125 -0.375,0.125 -0.0937,0 -0.32812,-0.0312 -1.76563,-0.28125 -2.98438,-0.28125 -1.28125,0 -1.98437,0.64062 -0.70313,0.625 -0.70313,1.4375 v 1.48438 h 4.60938 q 0.35937,0 0.5,0.14062 0.15625,0.14063 0.15625,0.375 0,0.20313 -0.15625,0.34375 -0.14063,0.14063 -0.5,0.14063 z m 20.5586,4.10937 q 0,2.25 -1.60938,3.84375 -1.60937,1.59375 -3.89062,1.59375 -2.29688,0 -3.90625,-1.59375 -1.59375,-1.60937 -1.59375,-3.84375 0,-2.25 1.59375,-3.84375 1.60937,-1.60937 3.90625,-1.60937 2.28125,0 3.89062,1.59375 1.60938,1.59375 1.60938,3.85937 z m -1,0 q 0,-1.85937 -1.3125,-3.15625 -1.3125,-1.29687 -3.1875,-1.29687 -1.875,0 -3.20313,1.3125 -1.3125,1.29687 -1.3125,3.14062 0,1.82813 1.3125,3.14063 1.32813,1.3125 3.20313,1.3125 1.875,0 3.1875,-1.3125 1.3125,-1.3125 1.3125,-3.14063 z m 8.73047,-5.10937 v 2.48437 q 1.92187,-1.73437 2.875,-2.21875 0.95312,-0.5 1.76562,-0.5 0.875,0 1.625,0.59375 0.76563,0.57813 0.76563,0.89063 0,0.21875 -0.15625,0.375 -0.14063,0.14062 -0.35938,0.14062 -0.125,0 -0.20312,-0.0312 -0.0781,-0.0469 -0.3125,-0.28125 -0.40625,-0.40625 -0.71875,-0.54687 -0.29688,-0.15625 -0.59375,-0.15625 -0.64063,0 -1.54688,0.51562 -0.90625,0.51563 -3.14062,2.51563 v 5.39062 h 4.35937 q 0.35938,0 0.5,0.14063 0.15625,0.125 0.15625,0.34375 0,0.21875 -0.15625,0.35937 -0.14062,0.14063 -0.5,0.14063 h -7.73437 q -0.34375,0 -0.5,-0.125 -0.15625,-0.14063 -0.15625,-0.35938 0,-0.20312 0.14062,-0.32812 0.15625,-0.14063 0.51563,-0.14063 h 2.39062 V 6.04693 h -1.82812 q -0.34375,0 -0.5,-0.14063 -0.15625,-0.14062 -0.15625,-0.35937 0,-0.21875 0.14062,-0.35938 0.15625,-0.14062 0.51563,-0.14062 z m 11.08984,0 v 1 q 1.25,-1.34375 2.51562,-1.34375 0.76563,0 1.34375,0.40625 0.57813,0.40625 0.95313,1.21875 0.65625,-0.8125 1.32812,-1.21875 0.6875,-0.40625 1.35938,-0.40625 1.0625,0 1.70312,0.6875 0.82813,0.89062 0.82813,1.95312 v 6.875 h 0.82812 q 0.35938,0 0.5,0.14063 0.15625,0.125 0.15625,0.34375 0,0.21875 -0.15625,0.35937 -0.14062,0.14063 -0.5,0.14063 h -1.8125 V 7.4375 q 0,-0.75 -0.45312,-1.23437 -0.45313,-0.5 -1.0625,-0.5 -0.53125,0 -1.14063,0.40625 Q 463.41313,6.5 462.66313,7.6875 v 6.53125 h 0.8125 q 0.35938,0 0.5,0.14063 0.15625,0.125 0.15625,0.34375 0,0.21875 -0.15625,0.35937 -0.14062,0.14063 -0.5,0.14063 h -1.8125 V 7.5 q 0,-0.78125 -0.46875,-1.28125 -0.45312,-0.51562 -1.03125,-0.51562 -0.53125,0 -1.04687,0.32812 -0.71875,0.48438 -1.5,1.65625 v 6.53125 h 0.82812 q 0.35938,0 0.5,0.14063 0.15625,0.125 0.15625,0.34375 0,0.21875 -0.15625,0.35937 -0.14062,0.14063 -0.5,0.14063 h -2.64062 q -0.35938,0 -0.51563,-0.14063 -0.14062,-0.14062 -0.14062,-0.35937 0,-0.21875 0.14062,-0.34375 0.15625,-0.14063 0.51563,-0.14063 h 0.82812 V 6.04688 h -0.82812 q -0.35938,0 -0.51563,-0.14063 -0.14062,-0.14062 -0.14062,-0.35937 0,-0.21875 0.14062,-0.35938 0.15625,-0.14062 0.51563,-0.14062 z m 22.13672,0.65625 q 0,-0.34375 0.14062,-0.5 0.14063,-0.15625 0.35938,-0.15625 0.21875,0 0.35937,0.15625 0.14063,0.15625 0.14063,0.51562 v 1.6875 q 0,0.35938 -0.14063,0.51563 -0.14062,0.14062 -0.35937,0.14062 -0.20313,0 -0.34375,-0.125 -0.125,-0.125 -0.15625,-0.42187 -0.0625,-0.70313 -0.71875,-1.15625 -0.96875,-0.65625 -2.54688,-0.65625 -1.65625,0 -2.5625,0.65625 -0.70312,0.51562 -0.70312,1.125 0,0.70312 0.82812,1.17187 0.5625,0.32813 2.125,0.51563 2.0625,0.21875 2.85938,0.5 1.125,0.40625 1.6875,1.14062 0.5625,0.71875 0.5625,1.5625 0,1.25 -1.21875,2.23438 -1.20313,0.98437 -3.53125,0.98437 -2.32813,0 -3.82813,-1.1875 0,0.39063 -0.0469,0.51563 -0.0469,0.10937 -0.17188,0.20312 -0.10937,0.0781 -0.26562,0.0781 -0.21875,0 -0.35938,-0.15625 -0.14062,-0.15625 -0.14062,-0.5 V 12.5156 q 0,-0.34375 0.14062,-0.5 0.14063,-0.15625 0.35938,-0.15625 0.20312,0 0.34375,0.15625 0.15625,0.14062 0.15625,0.39062 0,0.53125 0.26562,0.89063 0.42188,0.5625 1.3125,0.9375 0.89063,0.375 2.20313,0.375 1.92187,0 2.85937,-0.71875 0.9375,-0.71875 0.9375,-1.51563 0,-0.90625 -0.95312,-1.46875 -0.96875,-0.54687 -2.79688,-0.73437 -1.82812,-0.1875 -2.625,-0.48438 -0.79687,-0.3125 -1.25,-0.92187 -0.4375,-0.60938 -0.4375,-1.3125 0,-1.26563 1.23438,-2 1.25,-0.75 2.96875,-0.75 2.03125,0 3.3125,1 z"
     fill-rule="nonzero"
     id="path1173" />
</svg>
